<svg width="729" height="777" viewBox="0 0 729 777" fill="none" xmlns="http://www.w3.org/2000/svg">
<g opacity="0.05" clip-path="url(#clip0_1_12798)">
<path d="M257.128 646.696H200.13V779.996H257.128V646.696Z" fill="#333333"/>
<path d="M226.038 639.971H200.13V647.559H226.038V639.971Z" fill="#333333"/>
<path d="M215.157 635.66H200.13V639.971H215.157V635.66Z" fill="#333333"/>
<path opacity="0.06" d="M233.293 656.008H223.966V662.906H233.293V656.008Z" fill="white"/>
<path opacity="0.12" d="M233.293 673.08H223.966V679.978H233.293V673.08Z" fill="white"/>
<path opacity="0.19" d="M233.293 707.224H223.966V714.122H233.293V707.224Z" fill="white"/>
<path opacity="0.14" d="M233.293 741.368H223.966V748.266H233.293V741.368Z" fill="white"/>
<path opacity="0.1" d="M233.293 758.44H223.966V765.338H233.293V758.44Z" fill="white"/>
<path d="M114.116 661.181H36.0461V732.573H114.116V661.181Z" fill="#333333"/>
<path d="M101.853 654.801H48.482V685.496H101.853V654.801Z" fill="#333333"/>
<path d="M119.815 706.189H41.7458V777.581H119.815V706.189Z" fill="#333333"/>
<path d="M107.38 699.808H54.009V730.503H107.38V699.808Z" fill="#333333"/>
<path d="M223.793 696.704H145.724V778.961H223.793V696.704Z" fill="#333333"/>
<path d="M211.53 689.462H158.159V724.985H211.53V689.462Z" fill="#333333"/>
<path d="M485.119 721.71H407.049V801.206H485.119V721.71Z" fill="#333333"/>
<path d="M472.856 714.639H419.485V748.956H472.856V714.639Z" fill="#333333"/>
<path d="M315.853 557.542H228.629V778.789H315.853V557.542Z" fill="#333333"/>
<path opacity="0.46" d="M254.019 567.544H232.947V571.511H254.019V567.544Z" fill="#E6E6E6"/>
<path opacity="0.34" d="M282.863 567.544H261.792V571.511H282.863V567.544Z" fill="#E6E6E6"/>
<path opacity="0.52" d="M311.535 567.544H290.463V571.511H311.535V567.544Z" fill="#E6E6E6"/>
<path opacity="0.54" d="M254.019 576.684H232.947V580.65H254.019V576.684Z" fill="#E6E6E6"/>
<path opacity="0.3" d="M282.863 576.684H261.792V580.65H282.863V576.684Z" fill="#E6E6E6"/>
<path opacity="0.06" d="M311.535 576.684H290.463V580.65H311.535V576.684Z" fill="#E6E6E6"/>
<path opacity="0.15" d="M254.019 585.823H232.947V589.79H254.019V585.823Z" fill="#E6E6E6"/>
<path opacity="0.42" d="M282.863 585.823H261.792V589.79H282.863V585.823Z" fill="#E6E6E6"/>
<path opacity="0.48" d="M311.535 585.823H290.463V589.79H311.535V585.823Z" fill="#E6E6E6"/>
<path opacity="0.18" d="M254.019 594.963H232.947V598.929H254.019V594.963Z" fill="#E6E6E6"/>
<path opacity="0.28" d="M311.535 594.963H290.463V598.929H311.535V594.963Z" fill="#E6E6E6"/>
<path opacity="0.29" d="M254.019 604.103H232.947V608.069H254.019V604.103Z" fill="#E6E6E6"/>
<path opacity="0.28" d="M282.863 604.103H261.792V608.069H282.863V604.103Z" fill="#E6E6E6"/>
<path opacity="0.56" d="M311.535 604.103H290.463V608.069H311.535V604.103Z" fill="#E6E6E6"/>
<path opacity="0.41" d="M254.019 613.242H232.947V617.209H254.019V613.242Z" fill="#E6E6E6"/>
<path opacity="0.16" d="M282.863 613.242H261.792V617.209H282.863V613.242Z" fill="#E6E6E6"/>
<path opacity="0.4" d="M311.535 613.242H290.463V617.209H311.535V613.242Z" fill="#E6E6E6"/>
<path opacity="0.1" d="M254.019 622.382H232.947V626.348H254.019V622.382Z" fill="#E6E6E6"/>
<path opacity="0.17" d="M282.863 622.382H261.792V626.348H282.863V622.382Z" fill="#E6E6E6"/>
<path opacity="0.08" d="M311.535 622.382H290.463V626.348H311.535V622.382Z" fill="#E6E6E6"/>
<path opacity="0.49" d="M254.019 631.521H232.947V635.488H254.019V631.521Z" fill="#E6E6E6"/>
<path opacity="0.58" d="M282.863 631.521H261.792V635.488H282.863V631.521Z" fill="#E6E6E6"/>
<path opacity="0.58" d="M311.535 631.521H290.463V635.488H311.535V631.521Z" fill="#E6E6E6"/>
<path opacity="0.26" d="M254.019 640.661H232.947V644.627H254.019V640.661Z" fill="#E6E6E6"/>
<path opacity="0.37" d="M282.863 640.661H261.792V644.627H282.863V640.661Z" fill="#E6E6E6"/>
<path opacity="0.34" d="M311.535 640.661H290.463V644.627H311.535V640.661Z" fill="#E6E6E6"/>
<path opacity="0.55" d="M254.019 649.801H232.947V653.767H254.019V649.801Z" fill="#E6E6E6"/>
<path opacity="0.12" d="M282.863 649.801H261.792V653.767H282.863V649.801Z" fill="#E6E6E6"/>
<path opacity="0.6" d="M311.535 649.801H290.463V653.767H311.535V649.801Z" fill="#E6E6E6"/>
<path opacity="0.02" d="M254.019 658.94H232.947V662.906H254.019V658.94Z" fill="#E6E6E6"/>
<path opacity="0.28" d="M282.863 658.94H261.792V662.906H282.863V658.94Z" fill="#E6E6E6"/>
<path opacity="0.21" d="M311.535 658.94H290.463V662.906H311.535V658.94Z" fill="#E6E6E6"/>
<path opacity="0.57" d="M254.019 668.08H232.947V672.046H254.019V668.08Z" fill="#E6E6E6"/>
<path opacity="0.38" d="M282.863 668.08H261.792V672.046H282.863V668.08Z" fill="#E6E6E6"/>
<path opacity="0.25" d="M311.535 668.08H290.463V672.046H311.535V668.08Z" fill="#E6E6E6"/>
<path opacity="0.15" d="M254.019 677.219H232.947V681.185H254.019V677.219Z" fill="#E6E6E6"/>
<path opacity="0.47" d="M282.863 677.219H261.792V681.185H282.863V677.219Z" fill="#E6E6E6"/>
<path opacity="0.3" d="M311.535 677.219H290.463V681.185H311.535V677.219Z" fill="#E6E6E6"/>
<path opacity="0.4" d="M254.019 686.358H232.947V690.325H254.019V686.358Z" fill="#E6E6E6"/>
<path opacity="0.39" d="M282.863 686.358H261.792V690.325H282.863V686.358Z" fill="#E6E6E6"/>
<path opacity="0.24" d="M311.535 686.358H290.463V690.325H311.535V686.358Z" fill="#E6E6E6"/>
<path opacity="0.46" d="M254.019 695.498H232.947V699.464H254.019V695.498Z" fill="#E6E6E6"/>
<path opacity="0.22" d="M282.863 695.498H261.792V699.464H282.863V695.498Z" fill="#E6E6E6"/>
<path opacity="0.11" d="M311.535 695.498H290.463V699.464H311.535V695.498Z" fill="#E6E6E6"/>
<path opacity="0.11" d="M282.863 704.638H261.792V708.604H282.863V704.638Z" fill="#E6E6E6"/>
<path opacity="0.02" d="M311.535 704.638H290.463V708.604H311.535V704.638Z" fill="#E6E6E6"/>
<path opacity="0.27" d="M254.019 713.777H232.947V717.744H254.019V713.777Z" fill="#E6E6E6"/>
<path opacity="0.21" d="M282.863 713.777H261.792V717.744H282.863V713.777Z" fill="#E6E6E6"/>
<path opacity="0.49" d="M311.535 713.777H290.463V717.744H311.535V713.777Z" fill="#E6E6E6"/>
<path opacity="0.6" d="M254.019 722.917H232.947V726.883H254.019V722.917Z" fill="#E6E6E6"/>
<path opacity="0.31" d="M282.863 722.917H261.792V726.883H282.863V722.917Z" fill="#E6E6E6"/>
<path opacity="0.22" d="M311.535 722.917H290.463V726.883H311.535V722.917Z" fill="#E6E6E6"/>
<path opacity="0.54" d="M254.019 732.056H232.947V736.023H254.019V732.056Z" fill="#E6E6E6"/>
<path opacity="0.6" d="M282.863 732.056H261.792V736.023H282.863V732.056Z" fill="#E6E6E6"/>
<path opacity="0.08" d="M311.535 732.056H290.463V736.023H311.535V732.056Z" fill="#E6E6E6"/>
<path opacity="0.55" d="M282.863 741.196H261.792V745.162H282.863V741.196Z" fill="#E6E6E6"/>
<path d="M311.535 741.196H290.463V745.162H311.535V741.196Z" fill="#E6E6E6"/>
<path opacity="0.6" d="M255.401 567.544H254.019V745.162H255.401V567.544Z" fill="#E6E6E6"/>
<path opacity="0.6" d="M290.463 567.544H289.081V745.162H290.463V567.544Z" fill="#E6E6E6"/>
<path d="M359.378 557.542H315.853V778.789H359.378V557.542Z" fill="#4D4D4D"/>
<path opacity="0.69" d="M352.988 567.544H320.171V571.511H352.988V567.544Z" fill="#E6E6E6"/>
<path opacity="0.79" d="M352.988 576.684H320.171V580.65H352.988V576.684Z" fill="#E6E6E6"/>
<path opacity="0.19" d="M352.988 585.823H320.171V589.79H352.988V585.823Z" fill="#E6E6E6"/>
<path opacity="0.88" d="M352.988 594.963H320.171V598.929H352.988V594.963Z" fill="#E6E6E6"/>
<path opacity="0.5" d="M352.988 604.103H320.171V608.069H352.988V604.103Z" fill="#E6E6E6"/>
<path opacity="0.25" d="M352.988 613.242H320.171V617.209H352.988V613.242Z" fill="#E6E6E6"/>
<path opacity="0.91" d="M352.988 622.382H320.171V626.348H352.988V622.382Z" fill="#E6E6E6"/>
<path opacity="0.02" d="M352.988 631.521H320.171V635.488H352.988V631.521Z" fill="#E6E6E6"/>
<path opacity="0.53" d="M352.988 640.661H320.171V644.627H352.988V640.661Z" fill="#E6E6E6"/>
<path opacity="0.65" d="M352.988 649.801H320.171V653.767H352.988V649.801Z" fill="#E6E6E6"/>
<path d="M352.988 658.94H320.171V662.906H352.988V658.94Z" fill="#E6E6E6"/>
<path opacity="0.8" d="M352.988 668.08H320.171V672.046H352.988V668.08Z" fill="#E6E6E6"/>
<path opacity="0.82" d="M352.988 677.219H320.171V681.185H352.988V677.219Z" fill="#E6E6E6"/>
<path opacity="0.75" d="M352.988 686.358H320.171V690.325H352.988V686.358Z" fill="#E6E6E6"/>
<path opacity="0.31" d="M352.988 695.498H320.171V699.464H352.988V695.498Z" fill="#E6E6E6"/>
<path opacity="0.22" d="M352.988 704.638H320.171V708.604H352.988V704.638Z" fill="#E6E6E6"/>
<path opacity="0.43" d="M352.988 713.777H320.171V717.744H352.988V713.777Z" fill="#E6E6E6"/>
<path opacity="0.68" d="M352.988 722.917H320.171V726.883H352.988V722.917Z" fill="#E6E6E6"/>
<path opacity="0.38" d="M352.988 732.056H320.171V736.023H352.988V732.056Z" fill="#E6E6E6"/>
<path opacity="0.84" d="M352.988 741.196H320.171V745.162H352.988V741.196Z" fill="#E6E6E6"/>
<path d="M244.001 545.816V557.542H300.481V545.816H244.001ZM256.61 553.749H250.737V549.782H256.61V553.749ZM265.764 553.749H260.064V549.782H265.764V553.749ZM275.091 553.749H269.391V549.782H275.091V553.749ZM284.418 553.749H278.545V549.782H284.418V553.749ZM293.745 553.749H287.872V549.782H293.745V553.749Z" fill="#333333"/>
<path d="M310.844 549.782H309.29V553.749H310.844V549.782Z" fill="#333333"/>
<path d="M300.481 545.816V557.542H327.08V545.816H300.481ZM310.844 553.749H305.144V549.782H310.844V553.749ZM323.107 553.749H317.408V549.782H323.107V553.749Z" fill="#4D4D4D"/>
<path d="M322.935 549.782H321.38V553.749H322.935V549.782Z" fill="#333333"/>
<path d="M327.425 793.79H209.976L327.425 707.223V793.79Z" fill="#333333"/>
<path d="M152.287 510.637H142.787V546.678H152.287V510.637Z" fill="#4D4D4D"/>
<path d="M142.96 510.637H133.288V546.678H142.96V510.637Z" fill="#333333"/>
<path d="M162.132 510.637H152.46V546.678H162.132V510.637Z" fill="#666666"/>
<path d="M190.113 571.338H163.168V776.892H190.113V571.338Z" fill="#666666"/>
<path d="M131.561 571.338H108.071V776.892H131.561V571.338Z" fill="#333333"/>
<path d="M163.168 571.338H131.388V776.892H163.168V571.338Z" fill="#4D4D4D"/>
<path opacity="0.6" d="M114.807 577.373H111.352V774.132H114.807V577.373Z" fill="#E6E6E6"/>
<path opacity="0.6" d="M121.543 577.373H118.088V774.132H121.543V577.373Z" fill="#E6E6E6"/>
<path opacity="0.6" d="M128.279 577.373H124.825V774.132H128.279V577.373Z" fill="#E6E6E6"/>
<path d="M168.523 577.373H165.068V774.132H168.523V577.373Z" fill="#E6E6E6"/>
<path d="M175.259 577.373H171.804V774.132H175.259V577.373Z" fill="#E6E6E6"/>
<path d="M188.385 577.373H184.931V774.132H188.385V577.373Z" fill="#E6E6E6"/>
<path d="M181.995 577.373H178.54V774.132H181.995V577.373Z" fill="#E6E6E6"/>
<path opacity="0.8" d="M135.36 774.132H159.196V577.373H135.36V774.132ZM139.16 580.822H155.396V770.684H139.16V580.822Z" fill="#E6E6E6"/>
<path opacity="0.8" d="M142.269 767.407H152.46V583.926H142.269V767.407ZM145.724 588.237H146.933H147.624H149.005V763.096H147.624H146.933H145.724V588.237Z" fill="#E6E6E6"/>
<path opacity="0.8" d="M147.624 588.237H146.933V763.096H147.624V588.237Z" fill="#E6E6E6"/>
<path d="M159.541 535.297H135.706V571.338H159.541V535.297Z" fill="#4D4D4D"/>
<path d="M159.541 535.297H135.706V571.338H159.541V535.297Z" fill="#4D4D4D"/>
<path d="M183.377 535.297H159.541V571.338H183.377V535.297Z" fill="#666666"/>
<path d="M135.706 535.297H111.87V571.338H135.706V535.297Z" fill="#333333"/>
<path d="M161.959 510.637H133.288L142.787 517.19H152.46L161.959 510.637Z" fill="#808080"/>
<path d="M674.42 497.359H660.603V537.884H674.42V497.359Z" fill="#4D4D4D"/>
<path d="M660.43 497.359H646.612V537.884H660.43V497.359Z" fill="#333333"/>
<path d="M688.238 497.359H674.42V537.884H688.238V497.359Z" fill="#666666"/>
<path d="M729 565.82H689.965V797.413H729V565.82Z" fill="#666666"/>
<path d="M644.021 565.82H610.168V797.413H644.021V565.82Z" fill="#333333"/>
<path d="M689.965 565.82H644.022V797.413H689.965V565.82Z" fill="#4D4D4D"/>
<path opacity="0.4" d="M619.841 572.717H614.832V794.308H619.841V572.717Z" fill="#E6E6E6"/>
<path opacity="0.4" d="M629.686 572.717H624.677V794.308H629.686V572.717Z" fill="#E6E6E6"/>
<path opacity="0.4" d="M639.531 572.717H634.522V794.308H639.531V572.717Z" fill="#E6E6E6"/>
<path d="M697.738 572.717H692.729V794.308H697.738V572.717Z" fill="#E6E6E6"/>
<path d="M707.583 572.717H702.574V794.308H707.583V572.717Z" fill="#E6E6E6"/>
<path d="M726.409 572.717H721.4V794.308H726.409V572.717Z" fill="#E6E6E6"/>
<path d="M717.255 572.717H712.246V794.308H717.255V572.717Z" fill="#E6E6E6"/>
<path d="M649.894 794.308H684.438V572.717H649.894V794.308ZM655.248 576.511H678.738V790.514H655.248V576.511Z" fill="#E6E6E6"/>
<path d="M659.566 786.893H674.42V580.133H659.566V786.893ZM664.748 584.961H666.648H667.512H669.411V782.065H667.512H666.648H664.748V584.961Z" fill="#E6E6E6"/>
<path d="M667.512 584.961H666.648V782.065H667.512V584.961Z" fill="#E6E6E6"/>
<path d="M684.784 525.295H650.24V565.82H684.784V525.295Z" fill="#4D4D4D"/>
<path d="M684.784 525.295H650.24V565.82H684.784V525.295Z" fill="#4D4D4D"/>
<path d="M719.328 525.295H684.784V565.82H719.328V525.295Z" fill="#666666"/>
<path d="M650.412 525.295H615.868V565.82H650.412V525.295Z" fill="#333333"/>
<path d="M688.411 497.359H646.612L660.603 504.774H674.42L688.411 497.359Z" fill="#808080"/>
<path d="M574.761 597.894H480.283V629.278H574.761V597.894Z" fill="#E6E6E6"/>
<path d="M517.418 597.894H480.283V629.278H517.418V597.894Z" fill="#B3B3B3"/>
<path d="M517.418 629.451H444.011V781.892H517.418V629.451Z" fill="#333333"/>
<path d="M632.104 629.451H517.418V781.892H632.104V629.451Z" fill="#4D4D4D"/>
<path d="M508.436 613.931H451.957V629.451H508.436V613.931Z" fill="#333333"/>
<path d="M615.005 613.931H534.344V629.451H615.005V613.931Z" fill="#4D4D4D"/>
<path d="M549.716 585.995H517.418V597.893H549.716V585.995Z" fill="#E6E6E6"/>
<path d="M533.481 573.924H517.418V585.823H533.481V573.924Z" fill="#4D4D4D"/>
<path d="M517.245 573.924H501.182V585.823H517.245V573.924Z" fill="#333333"/>
<path d="M517.418 585.995H492.719V597.893H517.418V585.995Z" fill="#B3B3B3"/>
<path d="M516.381 573.924L517.418 546.333L518.281 573.924H516.381Z" fill="#333333"/>
<path opacity="0.12" d="M467.156 635.659H461.111V641.694H467.156V635.659Z" fill="white"/>
<path opacity="0.25" d="M475.447 635.659H469.401V641.694H475.447V635.659Z" fill="white"/>
<path opacity="0.36" d="M483.737 635.659H477.692V641.694H483.737V635.659Z" fill="white"/>
<path opacity="0.12" d="M492.028 635.659H485.982V641.694H492.028V635.659Z" fill="white"/>
<path opacity="0.14" d="M500.318 635.659H494.273V641.694H500.318V635.659Z" fill="white"/>
<path opacity="0.28" d="M467.156 643.591H461.111V649.627H467.156V643.591Z" fill="white"/>
<path opacity="0.4" d="M475.447 643.591H469.401V649.627H475.447V643.591Z" fill="white"/>
<path opacity="0.16" d="M483.737 643.591H477.692V649.627H483.737V643.591Z" fill="white"/>
<path opacity="0.17" d="M500.318 643.591H494.273V649.627H500.318V643.591Z" fill="white"/>
<path opacity="0.27" d="M467.156 651.524H461.111V657.559H467.156V651.524Z" fill="white"/>
<path opacity="0.45" d="M475.447 651.524H469.401V657.559H475.447V651.524Z" fill="white"/>
<path opacity="0.45" d="M483.737 651.524H477.692V657.559H483.737V651.524Z" fill="white"/>
<path opacity="0.48" d="M492.028 651.524H485.982V657.559H492.028V651.524Z" fill="white"/>
<path opacity="0.25" d="M500.318 651.524H494.273V657.559H500.318V651.524Z" fill="white"/>
<path opacity="0.28" d="M467.156 659.456H461.111V665.492H467.156V659.456Z" fill="white"/>
<path opacity="0.13" d="M475.447 659.456H469.401V665.492H475.447V659.456Z" fill="white"/>
<path opacity="0.07" d="M483.737 659.456H477.692V665.492H483.737V659.456Z" fill="white"/>
<path opacity="0.39" d="M492.028 659.456H485.982V665.492H492.028V659.456Z" fill="white"/>
<path opacity="0.47" d="M500.318 659.456H494.273V665.492H500.318V659.456Z" fill="white"/>
<path opacity="0.28" d="M467.156 667.388H461.111V673.424H467.156V667.388Z" fill="white"/>
<path opacity="0.2" d="M475.447 667.388H469.401V673.424H475.447V667.388Z" fill="white"/>
<path opacity="0.04" d="M483.737 667.388H477.692V673.424H483.737V667.388Z" fill="white"/>
<path opacity="0.43" d="M492.028 667.388H485.982V673.424H492.028V667.388Z" fill="white"/>
<path opacity="0.48" d="M500.318 667.388H494.273V673.424H500.318V667.388Z" fill="white"/>
<path opacity="0.28" d="M467.156 675.321H461.111V681.356H467.156V675.321Z" fill="white"/>
<path opacity="0.19" d="M475.447 675.321H469.401V681.356H475.447V675.321Z" fill="white"/>
<path opacity="0.01" d="M483.737 675.321H477.692V681.356H483.737V675.321Z" fill="white"/>
<path opacity="0.27" d="M492.028 675.321H485.982V681.356H492.028V675.321Z" fill="white"/>
<path opacity="0.24" d="M500.318 675.321H494.273V681.356H500.318V675.321Z" fill="white"/>
<path opacity="0.07" d="M467.156 683.426H461.111V689.461H467.156V683.426Z" fill="white"/>
<path opacity="0.25" d="M475.447 683.426H469.401V689.461H475.447V683.426Z" fill="white"/>
<path opacity="0.26" d="M483.737 683.426H477.692V689.461H483.737V683.426Z" fill="white"/>
<path opacity="0.39" d="M492.028 683.426H485.982V689.461H492.028V683.426Z" fill="white"/>
<path opacity="0.22" d="M500.318 683.426H494.273V689.461H500.318V683.426Z" fill="white"/>
<path opacity="0.15" d="M467.156 691.358H461.111V697.394H467.156V691.358Z" fill="white"/>
<path opacity="0.23" d="M475.447 691.358H469.401V697.394H475.447V691.358Z" fill="white"/>
<path opacity="0.05" d="M483.737 691.358H477.692V697.394H483.737V691.358Z" fill="white"/>
<path opacity="0.2" d="M492.028 691.358H485.982V697.394H492.028V691.358Z" fill="white"/>
<path opacity="0.31" d="M500.318 691.358H494.273V697.394H500.318V691.358Z" fill="white"/>
<path opacity="0.15" d="M467.156 699.291H461.111V705.326H467.156V699.291Z" fill="white"/>
<path opacity="0.33" d="M475.447 699.291H469.401V705.326H475.447V699.291Z" fill="white"/>
<path opacity="0.46" d="M483.737 699.291H477.692V705.326H483.737V699.291Z" fill="white"/>
<path opacity="0.25" d="M492.028 699.291H485.982V705.326H492.028V699.291Z" fill="white"/>
<path opacity="0.43" d="M500.318 699.291H494.273V705.326H500.318V699.291Z" fill="white"/>
<path opacity="0.4" d="M467.156 707.223H461.111V713.259H467.156V707.223Z" fill="white"/>
<path opacity="0.39" d="M475.447 707.223H469.401V713.259H475.447V707.223Z" fill="white"/>
<path opacity="0.01" d="M483.737 707.223H477.692V713.259H483.737V707.223Z" fill="white"/>
<path opacity="0.12" d="M492.028 707.223H485.982V713.259H492.028V707.223Z" fill="white"/>
<path opacity="0.07" d="M500.318 707.223H494.273V713.259H500.318V707.223Z" fill="white"/>
<path opacity="0.07" d="M467.156 715.156H461.111V721.191H467.156V715.156Z" fill="white"/>
<path opacity="0.02" d="M475.447 715.156H469.401V721.191H475.447V715.156Z" fill="white"/>
<path opacity="0.12" d="M483.737 715.156H477.692V721.191H483.737V715.156Z" fill="white"/>
<path opacity="0.23" d="M492.028 715.156H485.982V721.191H492.028V715.156Z" fill="white"/>
<path opacity="0.26" d="M500.318 715.156H494.273V721.191H500.318V715.156Z" fill="white"/>
<path opacity="0.27" d="M467.156 723.088H461.111V729.124H467.156V723.088Z" fill="white"/>
<path opacity="0.38" d="M475.447 723.088H469.401V729.124H475.447V723.088Z" fill="white"/>
<path opacity="0.05" d="M483.737 723.088H477.692V729.124H483.737V723.088Z" fill="white"/>
<path opacity="0.45" d="M492.028 723.088H485.982V729.124H492.028V723.088Z" fill="white"/>
<path opacity="0.15" d="M500.318 723.088H494.273V729.124H500.318V723.088Z" fill="white"/>
<path opacity="0.06" d="M467.156 731.021H461.111V737.056H467.156V731.021Z" fill="white"/>
<path opacity="0.47" d="M475.447 731.021H469.401V737.056H475.447V731.021Z" fill="white"/>
<path opacity="0.15" d="M483.737 731.021H477.692V737.056H483.737V731.021Z" fill="white"/>
<path opacity="0.44" d="M492.028 731.021H485.982V737.056H492.028V731.021Z" fill="white"/>
<path opacity="0.14" d="M500.318 731.021H494.273V737.056H500.318V731.021Z" fill="white"/>
<path opacity="0.15" d="M467.156 738.953H461.111V744.989H467.156V738.953Z" fill="white"/>
<path opacity="0.43" d="M475.447 738.953H469.401V744.989H475.447V738.953Z" fill="white"/>
<path opacity="0.07" d="M483.737 738.953H477.692V744.989H483.737V738.953Z" fill="white"/>
<path opacity="0.47" d="M492.028 738.953H485.982V744.989H492.028V738.953Z" fill="white"/>
<path opacity="0.11" d="M500.318 738.953H494.273V744.989H500.318V738.953Z" fill="white"/>
<path opacity="0.07" d="M467.156 746.885H461.111V752.921H467.156V746.885Z" fill="white"/>
<path opacity="0.34" d="M475.447 746.885H469.401V752.921H475.447V746.885Z" fill="white"/>
<path opacity="0.5" d="M483.737 746.885H477.692V752.921H483.737V746.885Z" fill="white"/>
<path opacity="0.36" d="M492.028 746.885H485.982V752.921H492.028V746.885Z" fill="white"/>
<path opacity="0.34" d="M500.318 746.885H494.273V752.921H500.318V746.885Z" fill="white"/>
<path opacity="0.47" d="M467.156 754.818H461.111V760.854H467.156V754.818Z" fill="white"/>
<path opacity="0.41" d="M475.447 754.818H469.401V760.854H475.447V754.818Z" fill="white"/>
<path opacity="0.3" d="M483.737 754.818H477.692V760.854H483.737V754.818Z" fill="white"/>
<path opacity="0.33" d="M492.028 754.818H485.982V760.854H492.028V754.818Z" fill="white"/>
<path opacity="0.12" d="M500.318 754.818H494.273V760.854H500.318V754.818Z" fill="white"/>
<path opacity="0.24" d="M467.156 762.75H461.111V768.786H467.156V762.75Z" fill="white"/>
<path opacity="0.29" d="M475.447 762.75H469.401V768.786H475.447V762.75Z" fill="white"/>
<path opacity="0.27" d="M492.028 762.75H485.982V768.786H492.028V762.75Z" fill="white"/>
<path opacity="0.04" d="M500.318 762.75H494.273V768.786H500.318V762.75Z" fill="white"/>
<path opacity="0.11" d="M467.156 770.683H461.111V776.718H467.156V770.683Z" fill="white"/>
<path opacity="0.05" d="M475.447 770.683H469.401V776.718H475.447V770.683Z" fill="white"/>
<path opacity="0.04" d="M483.737 770.683H477.692V776.718H483.737V770.683Z" fill="white"/>
<path opacity="0.02" d="M492.028 770.683H485.982V776.718H492.028V770.683Z" fill="white"/>
<path opacity="0.3" d="M537.453 635.659H531.408V641.694H537.453V635.659Z" fill="white"/>
<path opacity="0.72" d="M545.398 635.659H539.353V641.694H545.398V635.659Z" fill="white"/>
<path opacity="0.7" d="M553.516 635.659H547.471V641.694H553.516V635.659Z" fill="white"/>
<path opacity="0.52" d="M561.634 635.659H555.589V641.694H561.634V635.659Z" fill="white"/>
<path opacity="0.2" d="M569.752 635.659H563.706V641.694H569.752V635.659Z" fill="white"/>
<path opacity="0.32" d="M577.697 635.659H571.652V641.694H577.697V635.659Z" fill="white"/>
<path opacity="0.13" d="M585.815 635.659H579.77V641.694H585.815V635.659Z" fill="white"/>
<path opacity="0.38" d="M593.933 635.659H587.887V641.694H593.933V635.659Z" fill="white"/>
<path opacity="0.61" d="M601.878 635.659H595.833V641.694H601.878V635.659Z" fill="white"/>
<path d="M609.996 635.659H603.95V641.694H609.996V635.659Z" fill="white"/>
<path opacity="0.91" d="M618.113 635.659H612.068V641.694H618.113V635.659Z" fill="white"/>
<path opacity="0.66" d="M537.453 643.591H531.408V649.627H537.453V643.591Z" fill="white"/>
<path opacity="0.31" d="M545.398 643.591H539.353V649.627H545.398V643.591Z" fill="white"/>
<path opacity="0.95" d="M553.516 643.591H547.471V649.627H553.516V643.591Z" fill="white"/>
<path opacity="0.7" d="M561.634 643.591H555.589V649.627H561.634V643.591Z" fill="white"/>
<path opacity="0.12" d="M569.752 643.591H563.706V649.627H569.752V643.591Z" fill="white"/>
<path opacity="0.24" d="M577.697 643.591H571.652V649.627H577.697V643.591Z" fill="white"/>
<path opacity="0.66" d="M585.815 643.591H579.77V649.627H585.815V643.591Z" fill="white"/>
<path opacity="0.71" d="M593.933 643.591H587.887V649.627H593.933V643.591Z" fill="white"/>
<path opacity="0.42" d="M601.878 643.591H595.833V649.627H601.878V643.591Z" fill="white"/>
<path opacity="0.09" d="M609.996 643.591H603.95V649.627H609.996V643.591Z" fill="white"/>
<path opacity="0.32" d="M618.113 643.591H612.068V649.627H618.113V643.591Z" fill="white"/>
<path opacity="0.65" d="M537.453 651.524H531.408V657.559H537.453V651.524Z" fill="white"/>
<path d="M545.398 651.524H539.353V657.559H545.398V651.524Z" fill="white"/>
<path d="M553.516 651.524H547.471V657.559H553.516V651.524Z" fill="white"/>
<path opacity="0.71" d="M561.634 651.524H555.589V657.559H561.634V651.524Z" fill="white"/>
<path opacity="0.2" d="M569.752 651.524H563.706V657.559H569.752V651.524Z" fill="white"/>
<path opacity="0.19" d="M577.697 651.524H571.652V657.559H577.697V651.524Z" fill="white"/>
<path opacity="0.62" d="M585.815 651.524H579.77V657.559H585.815V651.524Z" fill="white"/>
<path opacity="0.93" d="M593.933 651.524H587.887V657.559H593.933V651.524Z" fill="white"/>
<path opacity="0.56" d="M601.878 651.524H595.833V657.559H601.878V651.524Z" fill="white"/>
<path opacity="0.57" d="M609.996 651.524H603.95V657.559H609.996V651.524Z" fill="white"/>
<path opacity="0.52" d="M618.113 651.524H612.068V657.559H618.113V651.524Z" fill="white"/>
<path opacity="0.74" d="M537.453 659.456H531.408V665.492H537.453V659.456Z" fill="white"/>
<path opacity="0.56" d="M545.398 659.456H539.353V665.492H545.398V659.456Z" fill="white"/>
<path opacity="0.78" d="M553.516 659.456H547.471V665.492H553.516V659.456Z" fill="white"/>
<path opacity="0.41" d="M561.634 659.456H555.589V665.492H561.634V659.456Z" fill="white"/>
<path opacity="0.14" d="M569.752 659.456H563.706V665.492H569.752V659.456Z" fill="white"/>
<path opacity="0.28" d="M577.697 659.456H571.652V665.492H577.697V659.456Z" fill="white"/>
<path opacity="0.36" d="M585.815 659.456H579.77V665.492H585.815V659.456Z" fill="white"/>
<path opacity="0.14" d="M593.933 659.456H587.887V665.492H593.933V659.456Z" fill="white"/>
<path opacity="0.5" d="M601.878 659.456H595.833V665.492H601.878V659.456Z" fill="white"/>
<path opacity="0.98" d="M609.996 659.456H603.95V665.492H609.996V659.456Z" fill="white"/>
<path opacity="0.59" d="M618.113 659.456H612.068V665.492H618.113V659.456Z" fill="white"/>
<path opacity="0.07" d="M537.453 667.388H531.408V673.424H537.453V667.388Z" fill="white"/>
<path opacity="0.1" d="M545.398 667.388H539.353V673.424H545.398V667.388Z" fill="white"/>
<path opacity="0.88" d="M553.516 667.388H547.471V673.424H553.516V667.388Z" fill="white"/>
<path opacity="0.68" d="M561.634 667.388H555.589V673.424H561.634V667.388Z" fill="white"/>
<path opacity="0.81" d="M569.752 667.388H563.706V673.424H569.752V667.388Z" fill="white"/>
<path opacity="0.62" d="M577.697 667.388H571.652V673.424H577.697V667.388Z" fill="white"/>
<path opacity="0.97" d="M585.815 667.388H579.77V673.424H585.815V667.388Z" fill="white"/>
<path opacity="0.81" d="M593.933 667.388H587.887V673.424H593.933V667.388Z" fill="white"/>
<path opacity="0.79" d="M601.878 667.388H595.833V673.424H601.878V667.388Z" fill="white"/>
<path opacity="0.03" d="M609.996 667.388H603.95V673.424H609.996V667.388Z" fill="white"/>
<path opacity="0.95" d="M618.113 667.388H612.068V673.424H618.113V667.388Z" fill="white"/>
<path opacity="0.62" d="M537.453 675.321H531.408V681.356H537.453V675.321Z" fill="white"/>
<path opacity="0.22" d="M545.398 675.321H539.353V681.356H545.398V675.321Z" fill="white"/>
<path opacity="0.42" d="M553.516 675.321H547.471V681.356H553.516V675.321Z" fill="white"/>
<path opacity="0.56" d="M561.634 675.321H555.589V681.356H561.634V675.321Z" fill="white"/>
<path opacity="0.03" d="M569.752 675.321H563.706V681.356H569.752V675.321Z" fill="white"/>
<path opacity="0.64" d="M577.697 675.321H571.652V681.356H577.697V675.321Z" fill="white"/>
<path opacity="0.82" d="M585.815 675.321H579.77V681.356H585.815V675.321Z" fill="white"/>
<path opacity="0.52" d="M593.933 675.321H587.887V681.356H593.933V675.321Z" fill="white"/>
<path opacity="0.46" d="M601.878 675.321H595.833V681.356H601.878V675.321Z" fill="white"/>
<path opacity="0.27" d="M609.996 675.321H603.95V681.356H609.996V675.321Z" fill="white"/>
<path opacity="0.46" d="M618.113 675.321H612.068V681.356H618.113V675.321Z" fill="white"/>
<path opacity="0.66" d="M537.453 683.426H531.408V689.461H537.453V683.426Z" fill="white"/>
<path opacity="0.7" d="M545.398 683.426H539.353V689.461H545.398V683.426Z" fill="white"/>
<path opacity="0.94" d="M553.516 683.426H547.471V689.461H553.516V683.426Z" fill="white"/>
<path opacity="0.5" d="M561.634 683.426H555.589V689.461H561.634V683.426Z" fill="white"/>
<path opacity="0.12" d="M569.752 683.426H563.706V689.461H569.752V683.426Z" fill="white"/>
<path opacity="0.36" d="M577.697 683.426H571.652V689.461H577.697V683.426Z" fill="white"/>
<path opacity="0.51" d="M585.815 683.426H579.77V689.461H585.815V683.426Z" fill="white"/>
<path opacity="0.37" d="M593.933 683.426H587.887V689.461H593.933V683.426Z" fill="white"/>
<path opacity="0.66" d="M601.878 683.426H595.833V689.461H601.878V683.426Z" fill="white"/>
<path opacity="0.42" d="M609.996 683.426H603.95V689.461H609.996V683.426Z" fill="white"/>
<path opacity="0.5" d="M618.113 683.426H612.068V689.461H618.113V683.426Z" fill="white"/>
<path opacity="0.52" d="M537.453 691.358H531.408V697.394H537.453V691.358Z" fill="white"/>
<path opacity="0.61" d="M545.398 691.358H539.353V697.394H545.398V691.358Z" fill="white"/>
<path opacity="0.84" d="M553.516 691.358H547.471V697.394H553.516V691.358Z" fill="white"/>
<path opacity="0.89" d="M561.634 691.358H555.589V697.394H561.634V691.358Z" fill="white"/>
<path opacity="0.33" d="M569.752 691.358H563.706V697.394H569.752V691.358Z" fill="white"/>
<path opacity="0.25" d="M577.697 691.358H571.652V697.394H577.697V691.358Z" fill="white"/>
<path opacity="0.95" d="M585.815 691.358H579.77V697.394H585.815V691.358Z" fill="white"/>
<path opacity="0.09" d="M593.933 691.358H587.887V697.394H593.933V691.358Z" fill="white"/>
<path opacity="0.44" d="M601.878 691.358H595.833V697.394H601.878V691.358Z" fill="white"/>
<path opacity="0.51" d="M609.996 691.358H603.95V697.394H609.996V691.358Z" fill="white"/>
<path opacity="0.97" d="M618.113 691.358H612.068V697.394H618.113V691.358Z" fill="white"/>
<path opacity="0.26" d="M537.453 699.291H531.408V705.326H537.453V699.291Z" fill="white"/>
<path opacity="0.92" d="M545.398 699.291H539.353V705.326H545.398V699.291Z" fill="white"/>
<path opacity="0.33" d="M553.516 699.291H547.471V705.326H553.516V699.291Z" fill="white"/>
<path opacity="0.23" d="M561.634 699.291H555.589V705.326H561.634V699.291Z" fill="white"/>
<path opacity="0.42" d="M569.752 699.291H563.706V705.326H569.752V699.291Z" fill="white"/>
<path opacity="0.57" d="M577.697 699.291H571.652V705.326H577.697V699.291Z" fill="white"/>
<path opacity="0.73" d="M585.815 699.291H579.77V705.326H585.815V699.291Z" fill="white"/>
<path opacity="0.87" d="M593.933 699.291H587.887V705.326H593.933V699.291Z" fill="white"/>
<path opacity="0.22" d="M601.878 699.291H595.833V705.326H601.878V699.291Z" fill="white"/>
<path opacity="0.89" d="M609.996 699.291H603.95V705.326H609.996V699.291Z" fill="white"/>
<path opacity="0.73" d="M618.113 699.291H612.068V705.326H618.113V699.291Z" fill="white"/>
<path opacity="0.35" d="M537.453 707.223H531.408V713.259H537.453V707.223Z" fill="white"/>
<path opacity="0.81" d="M545.398 707.223H539.353V713.259H545.398V707.223Z" fill="white"/>
<path opacity="0.56" d="M553.516 707.223H547.471V713.259H553.516V707.223Z" fill="white"/>
<path opacity="0.81" d="M561.634 707.223H555.589V713.259H561.634V707.223Z" fill="white"/>
<path opacity="0.87" d="M569.752 707.223H563.706V713.259H569.752V707.223Z" fill="white"/>
<path opacity="0.39" d="M577.697 707.223H571.652V713.259H577.697V707.223Z" fill="white"/>
<path opacity="0.31" d="M585.815 707.223H579.77V713.259H585.815V707.223Z" fill="white"/>
<path opacity="0.98" d="M593.933 707.223H587.887V713.259H593.933V707.223Z" fill="white"/>
<path opacity="0.17" d="M601.878 707.223H595.833V713.259H601.878V707.223Z" fill="white"/>
<path opacity="0.06" d="M609.996 707.223H603.95V713.259H609.996V707.223Z" fill="white"/>
<path opacity="0.57" d="M618.113 707.223H612.068V713.259H618.113V707.223Z" fill="white"/>
<path opacity="0.67" d="M537.453 715.156H531.408V721.191H537.453V715.156Z" fill="white"/>
<path opacity="0.83" d="M545.398 715.156H539.353V721.191H545.398V715.156Z" fill="white"/>
<path opacity="0.99" d="M553.516 715.156H547.471V721.191H553.516V715.156Z" fill="white"/>
<path opacity="0.62" d="M561.634 715.156H555.589V721.191H561.634V715.156Z" fill="white"/>
<path opacity="0.87" d="M569.752 715.156H563.706V721.191H569.752V715.156Z" fill="white"/>
<path opacity="0.14" d="M577.697 715.156H571.652V721.191H577.697V715.156Z" fill="white"/>
<path opacity="0.12" d="M585.815 715.156H579.77V721.191H585.815V715.156Z" fill="white"/>
<path opacity="0.11" d="M593.933 715.156H587.887V721.191H593.933V715.156Z" fill="white"/>
<path opacity="0.39" d="M601.878 715.156H595.833V721.191H601.878V715.156Z" fill="white"/>
<path opacity="0.58" d="M609.996 715.156H603.95V721.191H609.996V715.156Z" fill="white"/>
<path opacity="0.54" d="M618.113 715.156H612.068V721.191H618.113V715.156Z" fill="white"/>
<path opacity="0.99" d="M537.453 723.088H531.408V729.124H537.453V723.088Z" fill="white"/>
<path opacity="0.28" d="M545.398 723.088H539.353V729.124H545.398V723.088Z" fill="white"/>
<path opacity="0.78" d="M553.516 723.088H547.471V729.124H553.516V723.088Z" fill="white"/>
<path opacity="0.65" d="M561.634 723.088H555.589V729.124H561.634V723.088Z" fill="white"/>
<path opacity="0.32" d="M569.752 723.088H563.706V729.124H569.752V723.088Z" fill="white"/>
<path opacity="0.55" d="M577.697 723.088H571.652V729.124H577.697V723.088Z" fill="white"/>
<path opacity="0.4" d="M585.815 723.088H579.77V729.124H585.815V723.088Z" fill="white"/>
<path opacity="0.22" d="M593.933 723.088H587.887V729.124H593.933V723.088Z" fill="white"/>
<path opacity="0.87" d="M601.878 723.088H595.833V729.124H601.878V723.088Z" fill="white"/>
<path opacity="0.02" d="M609.996 723.088H603.95V729.124H609.996V723.088Z" fill="white"/>
<path opacity="0.39" d="M618.113 723.088H612.068V729.124H618.113V723.088Z" fill="white"/>
<path opacity="0.89" d="M537.453 731.021H531.408V737.056H537.453V731.021Z" fill="white"/>
<path opacity="0.97" d="M545.398 731.021H539.353V737.056H545.398V731.021Z" fill="white"/>
<path opacity="0.79" d="M553.516 731.021H547.471V737.056H553.516V731.021Z" fill="white"/>
<path opacity="0.41" d="M561.634 731.021H555.589V737.056H561.634V731.021Z" fill="white"/>
<path opacity="0.13" d="M569.752 731.021H563.706V737.056H569.752V731.021Z" fill="white"/>
<path opacity="0.9" d="M577.697 731.021H571.652V737.056H577.697V731.021Z" fill="white"/>
<path opacity="0.98" d="M585.815 731.021H579.77V737.056H585.815V731.021Z" fill="white"/>
<path opacity="0.67" d="M593.933 731.021H587.887V737.056H593.933V731.021Z" fill="white"/>
<path opacity="0.65" d="M601.878 731.021H595.833V737.056H601.878V731.021Z" fill="white"/>
<path opacity="0.89" d="M609.996 731.021H603.95V737.056H609.996V731.021Z" fill="white"/>
<path opacity="0.98" d="M618.113 731.021H612.068V737.056H618.113V731.021Z" fill="white"/>
<path opacity="0.29" d="M537.453 738.953H531.408V744.989H537.453V738.953Z" fill="white"/>
<path opacity="0.74" d="M545.398 738.953H539.353V744.989H545.398V738.953Z" fill="white"/>
<path opacity="0.64" d="M553.516 738.953H547.471V744.989H553.516V738.953Z" fill="white"/>
<path opacity="0.65" d="M561.634 738.953H555.589V744.989H561.634V738.953Z" fill="white"/>
<path opacity="0.07" d="M569.752 738.953H563.706V744.989H569.752V738.953Z" fill="white"/>
<path opacity="0.16" d="M577.697 738.953H571.652V744.989H577.697V738.953Z" fill="white"/>
<path opacity="0.84" d="M585.815 738.953H579.77V744.989H585.815V738.953Z" fill="white"/>
<path opacity="0.88" d="M593.933 738.953H587.887V744.989H593.933V738.953Z" fill="white"/>
<path opacity="0.57" d="M601.878 738.953H595.833V744.989H601.878V738.953Z" fill="white"/>
<path opacity="0.31" d="M609.996 738.953H603.95V744.989H609.996V738.953Z" fill="white"/>
<path opacity="0.03" d="M618.113 738.953H612.068V744.989H618.113V738.953Z" fill="white"/>
<path opacity="0.3" d="M537.453 746.885H531.408V752.921H537.453V746.885Z" fill="white"/>
<path opacity="0.59" d="M545.398 746.885H539.353V752.921H545.398V746.885Z" fill="white"/>
<path opacity="0.93" d="M553.516 746.885H547.471V752.921H553.516V746.885Z" fill="white"/>
<path opacity="0.06" d="M561.634 746.885H555.589V752.921H561.634V746.885Z" fill="white"/>
<path opacity="0.74" d="M569.752 746.885H563.706V752.921H569.752V746.885Z" fill="white"/>
<path opacity="0.22" d="M577.697 746.885H571.652V752.921H577.697V746.885Z" fill="white"/>
<path opacity="0.51" d="M585.815 746.885H579.77V752.921H585.815V746.885Z" fill="white"/>
<path opacity="0.7" d="M593.933 746.885H587.887V752.921H593.933V746.885Z" fill="white"/>
<path opacity="0.47" d="M601.878 746.885H595.833V752.921H601.878V746.885Z" fill="white"/>
<path opacity="0.08" d="M609.996 746.885H603.95V752.921H609.996V746.885Z" fill="white"/>
<path opacity="0.93" d="M618.113 746.885H612.068V752.921H618.113V746.885Z" fill="white"/>
<path opacity="0.81" d="M537.453 754.818H531.408V760.854H537.453V754.818Z" fill="white"/>
<path opacity="0.9" d="M545.398 754.818H539.353V760.854H545.398V754.818Z" fill="white"/>
<path opacity="0.55" d="M553.516 754.818H547.471V760.854H553.516V754.818Z" fill="white"/>
<path opacity="0.14" d="M561.634 754.818H555.589V760.854H561.634V754.818Z" fill="white"/>
<path opacity="0.66" d="M569.752 754.818H563.706V760.854H569.752V754.818Z" fill="white"/>
<path opacity="0.92" d="M577.697 754.818H571.652V760.854H577.697V754.818Z" fill="white"/>
<path opacity="0.4" d="M585.815 754.818H579.77V760.854H585.815V754.818Z" fill="white"/>
<path opacity="0.6" d="M593.933 754.818H587.887V760.854H593.933V754.818Z" fill="white"/>
<path opacity="0.99" d="M601.878 754.818H595.833V760.854H601.878V754.818Z" fill="white"/>
<path opacity="0.68" d="M609.996 754.818H603.95V760.854H609.996V754.818Z" fill="white"/>
<path opacity="0.01" d="M618.113 754.818H612.068V760.854H618.113V754.818Z" fill="white"/>
<path opacity="0.82" d="M537.453 762.75H531.408V768.786H537.453V762.75Z" fill="white"/>
<path opacity="0.92" d="M545.398 762.75H539.353V768.786H545.398V762.75Z" fill="white"/>
<path opacity="0.29" d="M553.516 762.75H547.471V768.786H553.516V762.75Z" fill="white"/>
<path opacity="0.73" d="M561.634 762.75H555.589V768.786H561.634V762.75Z" fill="white"/>
<path opacity="0.42" d="M569.752 762.75H563.706V768.786H569.752V762.75Z" fill="white"/>
<path opacity="0.06" d="M577.697 762.75H571.652V768.786H577.697V762.75Z" fill="white"/>
<path opacity="0.7" d="M585.815 762.75H579.77V768.786H585.815V762.75Z" fill="white"/>
<path opacity="0.97" d="M593.933 762.75H587.887V768.786H593.933V762.75Z" fill="white"/>
<path opacity="0.51" d="M601.878 762.75H595.833V768.786H601.878V762.75Z" fill="white"/>
<path opacity="0.69" d="M609.996 762.75H603.95V768.786H609.996V762.75Z" fill="white"/>
<path opacity="0.49" d="M618.113 762.75H612.068V768.786H618.113V762.75Z" fill="white"/>
<path opacity="0.45" d="M537.453 770.683H531.408V776.718H537.453V770.683Z" fill="white"/>
<path opacity="0.46" d="M545.398 770.683H539.353V776.718H545.398V770.683Z" fill="white"/>
<path opacity="0.04" d="M553.516 770.683H547.471V776.718H553.516V770.683Z" fill="white"/>
<path opacity="0.56" d="M561.634 770.683H555.589V776.718H561.634V770.683Z" fill="white"/>
<path opacity="0.4" d="M569.752 770.683H563.706V776.718H569.752V770.683Z" fill="white"/>
<path opacity="0.59" d="M577.697 770.683H571.652V776.718H577.697V770.683Z" fill="white"/>
<path opacity="0.82" d="M585.815 770.683H579.77V776.718H585.815V770.683Z" fill="white"/>
<path opacity="0.99" d="M593.933 770.683H587.887V776.718H593.933V770.683Z" fill="white"/>
<path opacity="0.1" d="M601.878 770.683H595.833V776.718H601.878V770.683Z" fill="white"/>
<path opacity="0.87" d="M609.996 770.683H603.95V776.718H609.996V770.683Z" fill="white"/>
<path d="M618.113 770.683H612.068V776.718H618.113V770.683Z" fill="white"/>
<path d="M435.375 596.859H378.378V775.167H435.375V596.859Z" fill="#333333"/>
<path d="M404.286 587.892H378.378V597.894H404.286V587.892Z" fill="#333333"/>
<path d="M393.404 582.029H378.378V587.892H393.404V582.029Z" fill="#333333"/>
<path opacity="0.25" d="M411.367 609.448H402.04V618.76H411.367V609.448Z" fill="white"/>
<path opacity="0.15" d="M411.367 632.383H402.04V641.695H411.367V632.383Z" fill="white"/>
<path opacity="0.19" d="M411.367 678.08H402.04V687.392H411.367V678.08Z" fill="white"/>
<path opacity="0.17" d="M411.367 700.843H402.04V710.155H411.367V700.843Z" fill="white"/>
<path opacity="0.22" d="M411.367 723.606H402.04V732.918H411.367V723.606Z" fill="white"/>
<path d="M411.367 746.541H402.04V755.853H411.367V746.541Z" fill="white"/>
<path d="M393.059 696.187H339.688V711.879H393.059V696.187Z" fill="#333333"/>
<path d="M419.658 696.187H393.059V711.879H419.658V696.187Z" fill="#4D4D4D"/>
<path d="M339.688 696.187L356.27 688.255L393.059 696.187H339.688Z" fill="#333333"/>
<path d="M356.27 688.255L393.059 696.187H419.658L356.27 688.255Z" fill="#4D4D4D"/>
<path d="M405.495 707.223H327.425V778.615H405.495V707.223Z" fill="#333333"/>
<path d="M431.403 707.223H405.495V778.615H431.403V707.223Z" fill="#4D4D4D"/>
<path opacity="0.81" d="M425.358 712.224H411.367V717.398H425.358V712.224Z" fill="white"/>
<path opacity="0.76" d="M425.358 721.709H411.367V726.882H425.358V721.709Z" fill="white"/>
<path opacity="0.32" d="M425.358 731.193H411.367V736.367H425.358V731.193Z" fill="white"/>
<path opacity="0.49" d="M425.358 740.85H411.367V746.023H425.358V740.85Z" fill="white"/>
<path opacity="0.99" d="M425.358 759.819H411.367V764.992H425.358V759.819Z" fill="white"/>
<path opacity="0.1" d="M353.852 712.224H339.861V717.398H353.852V712.224Z" fill="white"/>
<path opacity="0.04" d="M373.369 712.224H359.378V717.398H373.369V712.224Z" fill="white"/>
<path opacity="0.07" d="M393.059 712.224H379.069V717.398H393.059V712.224Z" fill="white"/>
<path opacity="0.06" d="M353.852 721.709H339.861V726.882H353.852V721.709Z" fill="white"/>
<path opacity="0.44" d="M373.369 721.709H359.378V726.882H373.369V721.709Z" fill="white"/>
<path opacity="0.24" d="M393.059 721.709H379.069V726.882H393.059V721.709Z" fill="white"/>
<path opacity="0.55" d="M353.852 731.193H339.861V736.367H353.852V731.193Z" fill="white"/>
<path opacity="0.02" d="M373.369 731.193H359.378V736.367H373.369V731.193Z" fill="white"/>
<path opacity="0.14" d="M393.059 731.193H379.069V736.367H393.059V731.193Z" fill="white"/>
<path opacity="0.43" d="M353.852 740.85H339.861V746.023H353.852V740.85Z" fill="white"/>
<path opacity="0.41" d="M373.369 740.85H359.378V746.023H373.369V740.85Z" fill="white"/>
<path opacity="0.46" d="M393.059 740.85H379.069V746.023H393.059V740.85Z" fill="white"/>
<path opacity="0.45" d="M353.852 750.334H339.861V755.508H353.852V750.334Z" fill="white"/>
<path opacity="0.33" d="M373.369 750.334H359.378V755.508H373.369V750.334Z" fill="white"/>
<path opacity="0.05" d="M393.059 750.334H379.069V755.508H393.059V750.334Z" fill="white"/>
<path opacity="0.27" d="M353.852 759.819H339.861V764.993H353.852V759.819Z" fill="white"/>
<path opacity="0.15" d="M373.369 759.819H359.378V764.993H373.369V759.819Z" fill="white"/>
<path opacity="0.7" d="M393.059 759.819H379.069V764.993H393.059V759.819Z" fill="white"/>
<path d="M25.6829 635.832H-22.6788V784.651H25.6829V635.832Z" fill="#333333"/>
<path d="M80.7806 635.832H25.8556V784.651H80.7806V635.832Z" fill="#4D4D4D"/>
<path d="M25.6829 648.42H-22.6788V651.007H25.6829V648.42Z" fill="#4D4D4D"/>
<path d="M80.7806 648.42H25.8556V651.007H80.7806V648.42Z" fill="#333333"/>
<path opacity="0.32" d="M0.638458 653.938H-4.54321V659.112H0.638458V653.938Z" fill="white"/>
<path opacity="0.25" d="M7.71997 653.938H2.53833V659.112H7.71997V653.938Z" fill="white"/>
<path opacity="0.12" d="M21.8831 653.938H16.7014V659.112H21.8831V653.938Z" fill="white"/>
<path opacity="0.22" d="M0.638458 661.009H-4.54321V666.182H0.638458V661.009Z" fill="white"/>
<path opacity="0.47" d="M7.71997 661.009H2.53833V666.182H7.71997V661.009Z" fill="white"/>
<path opacity="0.22" d="M14.8015 661.009H9.61993V666.182H14.8015V661.009Z" fill="white"/>
<path opacity="0.32" d="M21.8831 661.009H16.7014V666.182H21.8831V661.009Z" fill="white"/>
<path opacity="0.18" d="M0.638458 668.079H-4.54321V673.252H0.638458V668.079Z" fill="white"/>
<path opacity="0.28" d="M7.71997 668.079H2.53833V673.252H7.71997V668.079Z" fill="white"/>
<path opacity="0.2" d="M21.8831 668.079H16.7014V673.252H21.8831V668.079Z" fill="white"/>
<path opacity="0.33" d="M0.638458 675.149H-4.54321V680.322H0.638458V675.149Z" fill="white"/>
<path opacity="0.05" d="M7.71997 675.149H2.53833V680.322H7.71997V675.149Z" fill="white"/>
<path opacity="0.08" d="M14.8015 675.149H9.61993V680.322H14.8015V675.149Z" fill="white"/>
<path opacity="0.08" d="M7.71997 682.219H2.53833V687.393H7.71997V682.219Z" fill="white"/>
<path opacity="0.02" d="M14.8015 682.219H9.61993V687.393H14.8015V682.219Z" fill="white"/>
<path opacity="0.05" d="M0.638458 689.29H-4.54321V694.463H0.638458V689.29Z" fill="white"/>
<path opacity="0.2" d="M7.71997 689.29H2.53833V694.463H7.71997V689.29Z" fill="white"/>
<path opacity="0.23" d="M14.8015 689.29H9.61993V694.463H14.8015V689.29Z" fill="white"/>
<path opacity="0.14" d="M0.638458 696.36H-4.54321V701.533H0.638458V696.36Z" fill="white"/>
<path opacity="0.24" d="M14.8015 696.36H9.61993V701.533H14.8015V696.36Z" fill="white"/>
<path opacity="0.23" d="M0.638458 703.43H-4.54321V708.603H0.638458V703.43Z" fill="white"/>
<path opacity="0.02" d="M7.71997 703.43H2.53833V708.603H7.71997V703.43Z" fill="white"/>
<path opacity="0.04" d="M14.8015 703.43H9.61993V708.603H14.8015V703.43Z" fill="white"/>
<path opacity="0.3" d="M21.8831 703.43H16.7014V708.603H21.8831V703.43Z" fill="white"/>
<path opacity="0.4" d="M21.8831 710.328H16.7014V715.501H21.8831V710.328Z" fill="white"/>
<path opacity="0.12" d="M0.638458 717.398H-4.54321V722.572H0.638458V717.398Z" fill="white"/>
<path opacity="0.19" d="M14.8015 717.398H9.61993V722.572H14.8015V717.398Z" fill="white"/>
<path opacity="0.43" d="M21.8831 717.398H16.7014V722.572H21.8831V717.398Z" fill="white"/>
<path opacity="0.42" d="M7.71997 724.468H2.53833V729.642H7.71997V724.468Z" fill="white"/>
<path opacity="0.31" d="M21.8831 724.468H16.7014V729.642H21.8831V724.468Z" fill="white"/>
<path opacity="0.31" d="M7.71997 731.539H2.53833V736.712H7.71997V731.539Z" fill="white"/>
<path opacity="0.33" d="M21.8831 731.539H16.7014V736.712H21.8831V731.539Z" fill="white"/>
<path opacity="0.17" d="M7.71997 738.609H2.53833V743.782H7.71997V738.609Z" fill="white"/>
<path opacity="0.01" d="M14.8015 738.609H9.61993V743.782H14.8015V738.609Z" fill="white"/>
<path opacity="0.48" d="M21.8831 738.609H16.7014V743.782H21.8831V738.609Z" fill="white"/>
<path opacity="0.28" d="M0.638458 745.679H-4.54321V750.852H0.638458V745.679Z" fill="white"/>
<path opacity="0.02" d="M7.71997 745.679H2.53833V750.852H7.71997V745.679Z" fill="white"/>
<path opacity="0.17" d="M14.8015 745.679H9.61993V750.852H14.8015V745.679Z" fill="white"/>
<path opacity="0.42" d="M21.8831 745.679H16.7014V750.852H21.8831V745.679Z" fill="white"/>
<path opacity="0.11" d="M0.638458 752.749H-4.54321V757.922H0.638458V752.749Z" fill="white"/>
<path opacity="0.02" d="M7.71997 752.749H2.53833V757.922H7.71997V752.749Z" fill="white"/>
<path opacity="0.3" d="M21.8831 752.749H16.7014V757.922H21.8831V752.749Z" fill="white"/>
<path opacity="0.19" d="M0.638458 759.819H-4.54321V764.993H0.638458V759.819Z" fill="white"/>
<path opacity="0.05" d="M7.71997 759.819H2.53833V764.993H7.71997V759.819Z" fill="white"/>
<path opacity="0.2" d="M21.8831 759.819H16.7014V764.993H21.8831V759.819Z" fill="white"/>
<path opacity="0.27" d="M7.71997 766.89H2.53833V772.063H7.71997V766.89Z" fill="white"/>
<path opacity="0.13" d="M14.8015 766.89H9.61993V772.063H14.8015V766.89Z" fill="white"/>
<path opacity="0.46" d="M0.638458 773.96H-4.54321V779.133H0.638458V773.96Z" fill="white"/>
<path opacity="0.12" d="M7.71997 773.96H2.53833V779.133H7.71997V773.96Z" fill="white"/>
<path opacity="0.04" d="M14.8015 773.96H9.61993V779.133H14.8015V773.96Z" fill="white"/>
<path opacity="0.3" d="M21.8831 773.96H16.7014V779.133H21.8831V773.96Z" fill="white"/>
<path opacity="0.08" d="M14.8015 653.938H9.61993V659.112H14.8015V653.938Z" fill="white"/>
<path opacity="0.08" d="M14.8015 668.079H9.61993V673.252H14.8015V668.079Z" fill="white"/>
<path opacity="0.01" d="M21.8831 675.149H16.7014V680.322H21.8831V675.149Z" fill="white"/>
<path opacity="0.15" d="M0.638458 682.219H-4.54321V687.393H0.638458V682.219Z" fill="white"/>
<path opacity="0.12" d="M21.8831 682.219H16.7014V687.393H21.8831V682.219Z" fill="white"/>
<path opacity="0.13" d="M7.71997 696.36H2.53833V701.533H7.71997V696.36Z" fill="white"/>
<path opacity="0.07" d="M21.8831 696.36H16.7014V701.533H21.8831V696.36Z" fill="white"/>
<path opacity="0.02" d="M0.638458 710.328H-4.54321V715.501H0.638458V710.328Z" fill="white"/>
<path opacity="0.02" d="M7.71997 710.328H2.53833V715.501H7.71997V710.328Z" fill="white"/>
<path opacity="0.14" d="M14.8015 710.328H9.61993V715.501H14.8015V710.328Z" fill="white"/>
<path opacity="0.09" d="M0.638458 724.468H-4.54321V729.642H0.638458V724.468Z" fill="white"/>
<path opacity="0.02" d="M14.8015 724.468H9.61993V729.642H14.8015V724.468Z" fill="white"/>
<path opacity="0.19" d="M0.638458 731.539H-4.54321V736.712H0.638458V731.539Z" fill="white"/>
<path opacity="0.06" d="M14.8015 731.539H9.61993V736.712H14.8015V731.539Z" fill="white"/>
<path opacity="0.16" d="M0.638458 738.609H-4.54321V743.782H0.638458V738.609Z" fill="white"/>
<path opacity="0.04" d="M14.8015 752.749H9.61993V757.922H14.8015V752.749Z" fill="white"/>
<path opacity="0.04" d="M14.8015 759.819H9.61993V764.993H14.8015V759.819Z" fill="white"/>
<path opacity="0.18" d="M21.8831 766.89H16.7014V772.063H21.8831V766.89Z" fill="white"/>
<g opacity="0.7">
<path opacity="0.7" d="M36.2188 651.007H30.8645V778.098H36.2188V651.007Z" fill="#E6E6E6"/>
<path opacity="0.7" d="M45.373 651.007H40.0187V778.098H45.373V651.007Z" fill="#E6E6E6"/>
<path opacity="0.7" d="M54.6999 651.007H49.3456V778.098H54.6999V651.007Z" fill="#E6E6E6"/>
<path opacity="0.7" d="M64.0268 651.007H58.6725V778.098H64.0268V651.007Z" fill="#E6E6E6"/>
<path opacity="0.7" d="M73.3537 651.007H67.9994V778.098H73.3537V651.007Z" fill="#E6E6E6"/>
</g>
<path d="M108.416 778.099H0.983887L108.416 684.634V778.099Z" fill="#333333"/>
<path d="M99.2618 761.544H62.2997V782.237H99.2618V761.544Z" fill="#4D4D4D"/>
<path d="M96.4983 756.716H65.0632V766.373H96.4983V756.716Z" fill="#4D4D4D"/>
<path d="M92.8712 759.647H68.5176L76.9809 745.507H84.4078L92.8712 759.647Z" fill="#4D4D4D"/>
<path d="M89.4168 765.683H72.1448V778.271H89.4168V765.683Z" fill="white"/>
<path d="M91.4893 770.684H70.072V773.27H91.4893V770.684Z" fill="#4D4D4D"/>
<path d="M264.21 795.515C264.728 808.966 254.365 820.52 240.72 821.037C227.248 821.554 215.675 811.035 215.157 797.585C214.639 784.134 225.002 772.58 238.647 772.063C252.119 771.546 263.519 782.065 264.21 795.515Z" fill="#333333"/>
<path d="M260.064 788.79C260.41 796.55 254.365 803.103 246.592 803.448C238.82 803.793 232.257 797.757 231.911 789.997C231.566 782.237 237.611 775.684 245.383 775.339C253.156 774.994 259.719 781.03 260.064 788.79Z" fill="#4D4D4D"/>
<path d="M17.5651 770.166C17.5651 773.443 14.8015 776.202 11.5198 776.202C8.23814 776.202 5.47461 773.443 5.47461 770.166C5.47461 766.89 8.23814 764.131 11.5198 764.131C14.8015 764.131 17.5651 766.717 17.5651 770.166Z" fill="#333333"/>
<path d="M19.6377 776.202C19.6377 780.685 16.0106 784.307 11.5198 784.307C7.02912 784.307 3.40198 780.685 3.40198 776.202C3.40198 771.718 7.02912 768.097 11.5198 768.097C16.0106 768.097 19.6377 771.718 19.6377 776.202Z" fill="#333333"/>
<path d="M15.4924 764.993C15.4924 767.235 13.7652 769.132 11.5199 769.132C9.27451 769.132 7.5473 767.235 7.5473 764.993C7.5473 762.751 9.27451 760.854 11.5199 760.854C13.7652 760.854 15.4924 762.751 15.4924 764.993Z" fill="#333333"/>
<path d="M16.7014 770.166C16.7014 772.063 15.147 773.615 13.2471 773.615C11.3471 773.615 9.79266 772.063 9.79266 770.166C9.79266 768.269 11.3471 766.717 13.2471 766.717C15.147 766.717 16.7014 768.269 16.7014 770.166Z" fill="#4D4D4D"/>
<path d="M14.9742 765.51C14.9742 766.89 13.7652 768.097 12.3835 768.097C11.0017 768.097 9.79266 766.89 9.79266 765.51C9.79266 764.131 11.0017 762.923 12.3835 762.923C13.7652 762.751 14.9742 763.958 14.9742 765.51Z" fill="#4D4D4D"/>
<path d="M132.77 782.754C132.77 787.065 129.142 790.687 124.824 790.687C120.506 790.687 116.879 787.065 116.879 782.754C116.879 778.443 120.334 774.822 124.824 774.822C129.142 774.822 132.77 778.443 132.77 782.754Z" fill="#333333"/>
<path d="M130.006 776.029C130.006 778.961 127.761 781.375 124.824 781.375C121.888 781.375 119.643 778.961 119.643 776.029C119.643 773.098 121.888 770.683 124.824 770.683C127.588 770.683 130.006 773.098 130.006 776.029Z" fill="#333333"/>
<path d="M129.315 776.546C129.315 778.443 127.761 779.995 125.861 779.995C123.961 779.995 122.406 778.443 122.406 776.546C122.406 774.649 123.961 773.097 125.861 773.097C127.761 773.097 129.315 774.649 129.315 776.546Z" fill="#4D4D4D"/>
<path d="M122.061 788.618C121.197 796.895 113.77 802.758 105.653 801.896C97.3619 801.034 91.4894 793.619 92.353 785.514C93.2166 777.236 100.644 771.373 108.761 772.235C116.879 773.098 122.925 780.34 122.061 788.618Z" fill="#333333"/>
<path d="M118.261 775.34C117.743 780.858 112.907 784.997 107.38 784.479C102.025 783.962 98.0527 778.961 98.5709 773.443C99.0891 767.925 103.925 763.786 109.452 764.303C114.979 764.821 118.779 769.821 118.261 775.34Z" fill="#333333"/>
<path d="M116.879 776.374C116.534 779.996 113.252 782.582 109.798 782.237C106.171 781.892 103.58 778.616 103.925 775.167C104.271 771.546 107.552 768.959 111.007 769.304C114.634 769.649 117.225 772.925 116.879 776.374Z" fill="#4D4D4D"/>
<path d="M200.303 781.375C200.303 788.963 194.258 794.998 186.658 794.998C179.058 794.998 173.013 788.963 173.013 781.375C173.013 773.787 179.058 767.752 186.658 767.752C194.085 767.752 200.303 773.787 200.303 781.375Z" fill="#333333"/>
<path d="M195.467 769.649C195.467 774.822 191.494 778.961 186.486 778.961C181.477 778.961 177.504 774.822 177.504 769.649C177.504 764.475 181.477 760.337 186.486 760.337C191.494 760.509 195.467 764.648 195.467 769.649Z" fill="#333333"/>
<path d="M198.231 781.375C198.231 785.686 194.776 789.307 190.285 789.307C185.967 789.307 182.34 785.859 182.34 781.375C182.34 777.064 185.795 773.443 190.285 773.443C194.603 773.615 198.231 777.064 198.231 781.375Z" fill="#4D4D4D"/>
<path d="M194.258 770.856C194.258 774.132 191.667 776.891 188.213 776.891C184.931 776.891 182.168 774.305 182.168 770.856C182.168 767.579 184.758 764.993 188.213 764.993C191.667 764.82 194.258 767.579 194.258 770.856Z" fill="#4D4D4D"/>
<path d="M170.077 792.756C170.077 802.413 162.132 810.345 152.46 810.345C142.787 810.345 134.842 802.413 134.842 792.756C134.842 783.099 142.787 775.167 152.46 775.167C162.132 775.167 170.077 782.927 170.077 792.756Z" fill="#333333"/>
<path d="M164.032 777.581C164.032 784.134 158.85 789.48 152.46 789.48C146.069 789.48 140.887 784.134 140.887 777.581C140.887 771.028 146.069 765.682 152.46 765.682C158.85 765.682 164.032 771.028 164.032 777.581Z" fill="#333333"/>
<path d="M162.477 779.133C162.477 783.444 159.023 786.721 154.705 786.721C150.387 786.721 146.932 783.272 146.932 779.133C146.932 774.822 150.387 771.373 154.705 771.373C159.023 771.373 162.477 774.822 162.477 779.133Z" fill="#4D4D4D"/>
<path d="M212.739 779.65C212.739 781.72 211.185 783.272 209.285 783.272C207.385 783.272 205.83 781.72 205.83 779.65C205.83 777.581 207.385 776.029 209.285 776.029C211.185 776.029 212.739 777.581 212.739 779.65Z" fill="#333333"/>
<path d="M287.009 775.34C287.009 782.065 281.654 787.411 274.918 787.411C268.182 787.411 262.828 782.065 262.828 775.34C262.828 768.614 268.182 763.269 274.918 763.269C281.654 763.269 287.009 768.614 287.009 775.34Z" fill="#333333"/>
<path d="M291.154 787.411C291.154 796.378 283.9 803.621 274.918 803.621C265.937 803.621 258.683 796.378 258.683 787.411C258.683 778.444 265.937 771.201 274.918 771.201C283.9 771.201 291.154 778.444 291.154 787.411Z" fill="#333333"/>
<path d="M282.864 764.993C282.864 769.477 279.236 773.27 274.918 773.27C270.6 773.27 266.973 769.649 266.973 764.993C266.973 760.509 270.6 756.716 274.918 756.716C279.236 756.716 282.864 760.509 282.864 764.993Z" fill="#333333"/>
<path d="M285.109 775.34C285.109 779.134 282 782.238 278.2 782.238C274.4 782.238 271.291 779.134 271.291 775.34C271.291 771.546 274.4 768.442 278.2 768.442C282 768.442 285.109 771.546 285.109 775.34Z" fill="#4D4D4D"/>
<path d="M281.827 766.028C281.827 768.959 279.409 771.373 276.473 771.373C273.537 771.373 271.119 768.959 271.119 766.028C271.119 763.096 273.537 760.682 276.473 760.682C279.409 760.682 281.827 763.096 281.827 766.028Z" fill="#4D4D4D"/>
<path d="M332.089 790.515C332.089 799.482 324.835 806.724 315.853 806.724C306.872 806.724 299.617 799.482 299.617 790.515C299.617 781.548 306.872 774.305 315.853 774.305C324.835 774.477 332.089 781.72 332.089 790.515Z" fill="#333333"/>
<path d="M326.389 776.719C326.389 782.755 321.553 787.756 315.853 787.756C309.98 787.756 305.144 782.927 305.144 776.719C305.144 770.684 309.98 765.855 315.853 765.855C321.725 765.855 326.389 770.684 326.389 776.719Z" fill="#333333"/>
<path d="M325.007 778.099C325.007 782.065 321.898 785.169 317.926 785.169C313.953 785.169 310.844 782.065 310.844 778.099C310.844 774.133 313.953 771.029 317.926 771.029C321.898 771.029 325.007 774.133 325.007 778.099Z" fill="#4D4D4D"/>
<path d="M596.351 797.068C596.351 811.898 584.433 823.797 569.579 823.797C554.725 823.797 542.807 811.898 542.807 797.068C542.807 782.237 554.725 770.339 569.579 770.339C584.433 770.339 596.351 782.41 596.351 797.068Z" fill="#333333"/>
<path d="M592.378 789.653C592.378 798.102 585.469 805 577.006 805C568.543 805 561.634 798.102 561.634 789.653C561.634 781.203 568.543 774.305 577.006 774.305C585.469 774.305 592.378 781.203 592.378 789.653Z" fill="#4D4D4D"/>
<path d="M630.722 785.514C630.722 797.93 620.532 808.104 608.096 808.104C595.66 808.104 585.469 797.93 585.469 785.514C585.469 773.098 595.66 762.924 608.096 762.924C620.704 762.924 630.722 772.925 630.722 785.514Z" fill="#333333"/>
<path d="M627.268 779.133C627.268 786.376 621.395 792.067 614.314 792.067C607.059 792.067 601.36 786.204 601.36 779.133C601.36 772.063 607.232 766.2 614.314 766.2C621.395 766.2 627.268 772.063 627.268 779.133Z" fill="#4D4D4D"/>
<path d="M573.034 789.135C573.034 801.551 562.843 811.725 550.407 811.725C537.971 811.725 527.781 801.551 527.781 789.135C527.781 776.719 537.971 766.545 550.407 766.545C563.016 766.545 573.034 776.546 573.034 789.135Z" fill="#333333"/>
<path d="M569.579 782.755C569.579 789.997 563.707 795.688 556.625 795.688C549.544 795.688 543.671 789.825 543.671 782.755C543.671 775.512 549.544 769.821 556.625 769.821C563.707 769.821 569.579 775.512 569.579 782.755Z" fill="#4D4D4D"/>
<path d="M503.255 794.309C503.255 806.725 493.064 816.899 480.628 816.899C468.192 816.899 458.002 806.725 458.002 794.309C458.002 781.893 468.192 771.719 480.628 771.719C493.237 771.719 503.255 781.893 503.255 794.309Z" fill="#333333"/>
<path d="M499.8 787.928C499.8 795.171 493.928 800.862 486.846 800.862C479.592 800.862 473.892 794.999 473.892 787.928C473.892 780.686 479.765 774.995 486.846 774.995C493.928 774.995 499.8 780.858 499.8 787.928Z" fill="#4D4D4D"/>
<path d="M475.965 790.515C475.965 802.931 465.774 813.105 453.338 813.105C440.902 813.105 430.712 802.931 430.712 790.515C430.712 778.099 440.902 767.925 453.338 767.925C465.774 767.925 475.965 777.926 475.965 790.515Z" fill="#333333"/>
<path d="M472.51 784.134C472.51 791.377 466.638 797.068 459.556 797.068C452.302 797.068 446.602 791.205 446.602 784.134C446.602 776.892 452.475 771.201 459.556 771.201C466.638 771.201 472.51 776.892 472.51 784.134Z" fill="#4D4D4D"/>
<path d="M493.582 786.893C493.582 794.136 487.71 799.826 480.628 799.826C473.374 799.826 467.674 793.963 467.674 786.893C467.674 779.65 473.547 773.96 480.628 773.96C487.882 773.96 493.582 779.823 493.582 786.893Z" fill="#4D4D4D"/>
<path d="M397.032 787.928C397.032 796.033 390.468 802.758 382.178 802.758C374.06 802.758 367.324 796.205 367.324 787.928C367.324 779.823 373.887 773.097 382.178 773.097C390.468 773.27 397.032 779.823 397.032 787.928Z" fill="#333333"/>
<path d="M394.786 783.789C394.786 788.445 390.986 792.239 386.323 792.239C381.66 792.239 377.86 788.445 377.86 783.789C377.86 779.133 381.66 775.339 386.323 775.339C390.986 775.339 394.786 779.133 394.786 783.789Z" fill="#4D4D4D"/>
<path d="M8.92905 776.202C8.92905 783.099 3.40198 788.618 -3.50683 788.618C-10.4156 788.618 -15.9427 783.099 -15.9427 776.202C-15.9427 769.304 -10.4156 763.786 -3.50683 763.786C3.22926 763.613 8.92905 769.304 8.92905 776.202Z" fill="#333333"/>
<path d="M13.0743 788.618C13.0743 797.93 5.64736 805.345 -3.67952 805.345C-13.0064 805.345 -20.4333 797.93 -20.4333 788.618C-20.4333 779.306 -13.0064 771.891 -3.67952 771.891C5.64736 771.891 13.0743 779.306 13.0743 788.618Z" fill="#333333"/>
<path d="M4.61105 765.51C4.61105 770.166 0.983925 773.96 -3.67952 773.96C-8.17024 773.96 -11.9701 770.166 -11.9701 765.51C-11.9701 760.854 -8.34296 757.06 -3.67952 757.06C0.983925 757.06 4.61105 760.854 4.61105 765.51Z" fill="#333333"/>
<path d="M7.02902 776.201C7.02902 780.168 3.74734 783.444 -0.225235 783.444C-4.19781 783.444 -7.47949 780.168 -7.47949 776.201C-7.47949 772.235 -4.19781 768.959 -0.225235 768.959C3.74734 768.959 7.02902 772.235 7.02902 776.201Z" fill="#4D4D4D"/>
<path d="M3.57465 766.545C3.57465 769.476 1.15656 772.063 -1.95242 772.063C-4.88868 772.063 -7.47949 769.649 -7.47949 766.545C-7.47949 763.613 -5.0614 761.027 -1.95242 761.027C0.983835 761.027 3.57465 763.441 3.57465 766.545Z" fill="#4D4D4D"/>
<path d="M67.8267 781.031C67.8267 786.549 63.336 791.032 57.8089 791.032C52.2818 791.032 47.7911 786.549 47.7911 781.031C47.7911 775.512 52.2818 771.029 57.8089 771.029C63.336 771.029 67.8267 775.512 67.8267 781.031Z" fill="#333333"/>
<path d="M64.3723 772.408C64.3723 776.202 61.436 779.306 57.8089 779.306C54.1817 779.306 51.2455 776.202 51.2455 772.408C51.2455 768.614 54.1817 765.51 57.8089 765.51C61.436 765.683 64.3723 768.614 64.3723 772.408Z" fill="#333333"/>
<path d="M66.2722 781.03C66.2722 784.307 63.6814 786.893 60.3997 786.893C57.118 786.893 54.5272 784.307 54.5272 781.03C54.5272 777.926 57.118 775.34 60.3997 775.34C63.6814 775.167 66.2722 777.754 66.2722 781.03Z" fill="#4D4D4D"/>
<path d="M63.5087 773.27C63.5087 775.685 61.6088 777.581 59.1907 777.581C56.7726 777.581 54.8727 775.685 54.8727 773.27C54.8727 770.856 56.7726 768.959 59.1907 768.959C61.6088 768.787 63.5087 770.856 63.5087 773.27Z" fill="#4D4D4D"/>
</g>
<defs>
<clipPath id="clip0_1_12798">
<rect width="1127" height="776" fill="white" transform="translate(-398 0.321777)"/>
</clipPath>
</defs>
</svg>
