<svg width="28" height="29" viewBox="0 0 28 29" fill="none" xmlns="http://www.w3.org/2000/svg">
<circle cx="14" cy="14.3218" r="14" fill="#E3B873"/>
<path d="M17 8.72119H11C9.34316 8.72119 8.00002 10.0643 8.00002 11.7212V17.7212C8.00002 19.378 9.34316 20.7212 11 20.7212H17C18.6569 20.7212 20 19.378 20 17.7212V11.7212C20 10.0643 18.6569 8.72119 17 8.72119Z" stroke="white" stroke-width="1.5"/>
<path d="M16.4 14.3434C16.4741 14.8427 16.3888 15.3527 16.1563 15.8008C15.9238 16.2489 15.5559 16.6122 15.105 16.8392C14.6541 17.0661 14.1431 17.1451 13.6447 17.0649C13.1463 16.9847 12.6859 16.7494 12.3289 16.3925C11.972 16.0355 11.7367 15.5751 11.6565 15.0767C11.5763 14.5783 11.6553 14.0673 11.8822 13.6164C12.1092 13.1655 12.4725 12.7976 12.9206 12.5651C13.3687 12.3326 13.8787 12.2473 14.378 12.3214C14.8874 12.3969 15.3589 12.6343 15.7231 12.9984C16.0872 13.3625 16.3245 13.834 16.4 14.3434Z" stroke="white" stroke-width="1.5" stroke-linecap="round" stroke-linejoin="round"/>
</svg>
