<svg width="196" height="67" viewBox="0 0 196 67" fill="none" xmlns="http://www.w3.org/2000/svg">
<path d="M16.4156 18.2999C15.109 18.2999 13.9623 18.0199 12.9756 17.4599C12.0023 16.8865 11.249 16.0532 10.7156 14.9599C10.1823 13.8665 9.91563 12.5465 9.91563 10.9999C9.91563 9.45321 10.1823 8.13321 10.7156 7.03988C11.249 5.94654 12.0023 5.11988 12.9756 4.55988C13.9623 3.98654 15.109 3.69988 16.4156 3.69988C17.7223 3.69988 18.8623 3.98654 19.8356 4.55988C20.8223 5.11988 21.5823 5.94654 22.1156 7.03988C22.649 8.13321 22.9156 9.45321 22.9156 10.9999C22.9156 12.5465 22.649 13.8665 22.1156 14.9599C21.5823 16.0532 20.8223 16.8865 19.8356 17.4599C18.8623 18.0199 17.7223 18.2999 16.4156 18.2999ZM16.4156 17.8999C16.9356 17.8999 17.4156 17.6799 17.8556 17.2399C18.309 16.7999 18.6823 16.0665 18.9756 15.0399C19.269 14.0132 19.4156 12.6665 19.4156 10.9999C19.4156 9.33321 19.269 7.98654 18.9756 6.95988C18.6823 5.93321 18.309 5.19988 17.8556 4.75988C17.4156 4.31988 16.9356 4.09988 16.4156 4.09988C15.8956 4.09988 15.409 4.31988 14.9556 4.75988C14.5156 5.19988 14.149 5.93321 13.8556 6.95988C13.5623 7.98654 13.4156 9.33321 13.4156 10.9999C13.4156 12.6665 13.5623 14.0132 13.8556 15.0399C14.149 16.0665 14.5156 16.7999 14.9556 17.2399C15.409 17.6799 15.8956 17.8999 16.4156 17.8999ZM26.6203 7.39988V17.0999L28.2203 17.6999V17.9999H24.4203V17.6999L26.0203 17.0999V4.69988L24.6203 4.29988V3.99988H26.7203C27.427 3.99988 27.9803 4.12654 28.3803 4.37988C28.7803 4.63321 29.1603 4.97321 29.5203 5.39988L35.9203 12.8999V4.89988L34.3203 4.29988V3.99988H38.1203V4.29988L36.5203 4.89988V18.2999H35.9203L26.6203 7.39988ZM39.4297 17.6999L40.6297 17.3999V4.59988L39.4297 4.29988V3.99988H45.1297V4.29988L43.9297 4.59988V17.4999H48.2297C48.2297 16.6599 48.443 15.8799 48.8697 15.1599C49.0564 14.8532 49.2764 14.5999 49.5297 14.3999H50.1297V17.9999H39.4297V17.6999ZM51.6367 17.9999V17.6999L52.8367 17.3999V4.59988L51.6367 4.29988V3.99988H57.3367V4.29988L56.1367 4.59988V17.3999L57.3367 17.6999V17.9999H51.6367ZM60.9367 7.39988V17.0999L62.5367 17.6999V17.9999H58.7367V17.6999L60.3367 17.0999V4.69988L58.9367 4.29988V3.99988H61.0367C61.7434 3.99988 62.2967 4.12654 62.6967 4.37988C63.0967 4.63321 63.4767 4.97321 63.8367 5.39988L70.2367 12.8999V4.89988L68.6367 4.29988V3.99988H72.4367V4.29988L70.8367 4.89988V18.2999H70.2367L60.9367 7.39988ZM73.7461 17.6999L74.9461 17.3999V4.59988L73.7461 4.29988V3.99988H84.4461V7.59988H83.8461C83.5928 7.39988 83.3728 7.14654 83.1861 6.83988C82.7594 6.11988 82.5461 5.33988 82.5461 4.49988H78.2461V10.7999H80.5461C80.6394 10.2932 80.8128 9.81988 81.0661 9.37988C81.1728 9.17988 81.2994 8.98654 81.4461 8.79988H82.0461V13.2999H81.4461C81.2994 13.1132 81.1728 12.9199 81.0661 12.7199C80.8128 12.2799 80.6394 11.8065 80.5461 11.2999H78.2461V17.4999H82.9461C82.9461 16.6599 83.1594 15.8799 83.5861 15.1599C83.7728 14.8532 83.9928 14.5999 84.2461 14.3999H84.8461V17.9999H73.7461V17.6999ZM98.9422 18.2999C96.8089 18.2999 95.1422 17.6665 93.9422 16.3999C92.7422 15.1332 92.1422 13.3332 92.1422 10.9999C92.1422 9.46654 92.4022 8.15321 92.9222 7.05988C93.4555 5.95321 94.1955 5.11988 95.1422 4.55988C96.1022 3.98654 97.2089 3.69988 98.4622 3.69988C99.2222 3.69988 99.9889 3.91988 100.762 4.35988C101.056 4.51988 101.349 4.73321 101.642 4.99988C101.869 4.65321 102.102 4.37988 102.342 4.17988C102.582 4.00654 102.716 3.91321 102.742 3.89988H103.242V7.69988H102.442C102.269 7.05988 102.009 6.47988 101.662 5.95988C101.342 5.45321 100.942 5.03321 100.462 4.69988C99.9955 4.36654 99.4555 4.19988 98.8422 4.19988C97.9222 4.19988 97.1555 4.73321 96.5422 5.79988C95.9422 6.86654 95.6422 8.59988 95.6422 10.9999C95.6422 13.4399 95.9689 15.1865 96.6222 16.2399C97.2889 17.2799 98.1955 17.7999 99.3422 17.7999C99.9689 17.7999 100.562 17.6265 101.122 17.2799C101.696 16.9199 102.156 16.4465 102.502 15.8599C102.862 15.2732 103.042 14.6532 103.042 13.9999H103.542C103.542 14.7599 103.336 15.4732 102.922 16.1399C102.522 16.7932 101.969 17.3199 101.262 17.7199C100.569 18.1065 99.7955 18.2999 98.9422 18.2999ZM111.259 18.2999C109.953 18.2999 108.806 18.0199 107.819 17.4599C106.846 16.8865 106.093 16.0532 105.559 14.9599C105.026 13.8665 104.759 12.5465 104.759 10.9999C104.759 9.45321 105.026 8.13321 105.559 7.03988C106.093 5.94654 106.846 5.11988 107.819 4.55988C108.806 3.98654 109.953 3.69988 111.259 3.69988C112.566 3.69988 113.706 3.98654 114.679 4.55988C115.666 5.11988 116.426 5.94654 116.959 7.03988C117.493 8.13321 117.759 9.45321 117.759 10.9999C117.759 12.5465 117.493 13.8665 116.959 14.9599C116.426 16.0532 115.666 16.8865 114.679 17.4599C113.706 18.0199 112.566 18.2999 111.259 18.2999ZM111.259 17.8999C111.779 17.8999 112.259 17.6799 112.699 17.2399C113.153 16.7999 113.526 16.0665 113.819 15.0399C114.113 14.0132 114.259 12.6665 114.259 10.9999C114.259 9.33321 114.113 7.98654 113.819 6.95988C113.526 5.93321 113.153 5.19988 112.699 4.75988C112.259 4.31988 111.779 4.09988 111.259 4.09988C110.739 4.09988 110.253 4.31988 109.799 4.75988C109.359 5.19988 108.993 5.93321 108.699 6.95988C108.406 7.98654 108.259 9.33321 108.259 10.9999C108.259 12.6665 108.406 14.0132 108.699 15.0399C108.993 16.0665 109.359 16.7999 109.799 17.2399C110.253 17.6799 110.739 17.8999 111.259 17.8999ZM121.464 7.39988V17.0999L123.064 17.6999V17.9999H119.264V17.6999L120.864 17.0999V4.69988L119.464 4.29988V3.99988H121.564C122.271 3.99988 122.824 4.12654 123.224 4.37988C123.624 4.63321 124.004 4.97321 124.364 5.39988L130.764 12.8999V4.89988L129.164 4.29988V3.99988H132.964V4.29988L131.364 4.89988V18.2999H130.764L121.464 7.39988ZM136.969 17.6999L138.169 17.3999V4.49988H135.869C135.869 5.31321 135.649 6.09321 135.209 6.83988C135.022 7.14654 134.809 7.39988 134.569 7.59988H133.969V3.99988H145.669V7.59988H145.069C144.815 7.39988 144.595 7.14654 144.409 6.83988C143.982 6.11988 143.769 5.33988 143.769 4.49988H141.469V17.3999L142.669 17.6999V17.9999H136.969V17.6999ZM147.164 17.6999L148.364 17.3999V4.59988L147.164 4.29988V3.99988H152.464C154.731 3.99988 156.364 4.34654 157.364 5.03988C158.364 5.71988 158.864 6.67321 158.864 7.89988C158.864 8.72654 158.644 9.39988 158.204 9.91988C157.764 10.4265 157.197 10.8065 156.504 11.0599C155.771 11.3399 154.991 11.4865 154.164 11.4999V11.5999C154.657 11.6265 155.091 11.6999 155.464 11.8199C156.397 12.1132 157.031 12.6399 157.364 13.3999L159.164 17.3999L160.164 17.6999V17.9999H157.364C156.271 17.9999 155.471 17.4332 154.964 16.2999L152.964 11.7999H151.664V17.3999L153.064 17.6999V17.9999H147.164V17.6999ZM152.464 11.2999C153.397 11.2999 154.131 11.0065 154.664 10.4199C155.197 9.83321 155.464 8.99321 155.464 7.89988C155.464 6.80654 155.197 5.96654 154.664 5.37988C154.131 4.79321 153.397 4.49988 152.464 4.49988H151.664V11.2999H152.464ZM167.373 18.2999C166.066 18.2999 164.919 18.0199 163.933 17.4599C162.959 16.8865 162.206 16.0532 161.673 14.9599C161.139 13.8665 160.873 12.5465 160.873 10.9999C160.873 9.45321 161.139 8.13321 161.673 7.03988C162.206 5.94654 162.959 5.11988 163.933 4.55988C164.919 3.98654 166.066 3.69988 167.373 3.69988C168.679 3.69988 169.819 3.98654 170.793 4.55988C171.779 5.11988 172.539 5.94654 173.073 7.03988C173.606 8.13321 173.873 9.45321 173.873 10.9999C173.873 12.5465 173.606 13.8665 173.073 14.9599C172.539 16.0532 171.779 16.8865 170.793 17.4599C169.819 18.0199 168.679 18.2999 167.373 18.2999ZM167.373 17.8999C167.893 17.8999 168.373 17.6799 168.813 17.2399C169.266 16.7999 169.639 16.0665 169.933 15.0399C170.226 14.0132 170.373 12.6665 170.373 10.9999C170.373 9.33321 170.226 7.98654 169.933 6.95988C169.639 5.93321 169.266 5.19988 168.813 4.75988C168.373 4.31988 167.893 4.09988 167.373 4.09988C166.853 4.09988 166.366 4.31988 165.913 4.75988C165.473 5.19988 165.106 5.93321 164.813 6.95988C164.519 7.98654 164.373 9.33321 164.373 10.9999C164.373 12.6665 164.519 14.0132 164.813 15.0399C165.106 16.0665 165.473 16.7999 165.913 17.2399C166.366 17.6799 166.853 17.8999 167.373 17.8999ZM175.777 17.6999L176.977 17.3999V4.59988L175.777 4.29988V3.99988H181.477V4.29988L180.277 4.59988V17.4999H184.577C184.577 16.6599 184.791 15.8799 185.217 15.1599C185.404 14.8532 185.624 14.5999 185.877 14.3999H186.477V17.9999H175.777V17.6999Z" fill="white"/>
<rect x="41.0005" y="51.8119" width="32" height="1.54334" rx="0.771672" fill="#E3B873"/>
<rect x="123" y="51.8119" width="32" height="1.54334" rx="0.771672" fill="#E3B873"/>
<path d="M114.851 47.7654L90.7306 38.8292C90.4221 38.7152 90.0793 38.8729 89.9655 39.1817C89.9653 39.182 89.9653 39.1822 89.965 39.1825L87.2949 46.4506C87.1814 46.7594 87.3396 47.1019 87.6484 47.2154H87.6489L90.4448 48.2419L89.8288 49.9203C89.7155 50.229 89.8738 50.5711 90.1825 50.6846L95.7753 52.7379L95.3643 53.8567C94.9908 54.8588 95.3393 55.9868 96.2134 56.6031V59.6433H88.1974C87.8094 58.7562 87.0154 58.1122 86.0671 57.9157V56.6646C86.0671 56.3356 85.8006 56.0688 85.4713 56.0688H83.0694C82.7404 56.0688 82.4736 56.3356 82.4736 56.6646V66.1964C82.4736 66.5257 82.7404 66.7922 83.0694 66.7922H85.4713C85.8006 66.7922 86.0671 66.5257 86.0671 66.1964V64.9456C87.0154 64.7488 87.8094 64.105 88.1974 63.2177H96.2134V63.8135C96.2134 64.8006 97.0134 65.6009 98.0005 65.6009C98.9875 65.6009 99.7878 64.8006 99.7878 63.8135V57.2139C100.329 56.9454 100.748 56.4796 100.956 55.9121L101.367 54.7933L106.4 56.6401C106.466 56.6644 106.535 56.6766 106.605 56.6766C106.855 56.6766 107.079 56.5209 107.165 56.2864L107.388 55.6781C109.327 56.0428 111.194 54.767 111.558 52.8287C111.693 52.1124 111.606 51.3721 111.308 50.7071L114.919 48.8527C115.212 48.7027 115.328 48.3437 115.178 48.0509C115.11 47.9179 114.994 47.8154 114.854 47.7637L114.851 47.7654ZM97.4047 57.1459L97.898 57.3247C98.1225 57.4052 98.358 57.4514 98.5962 57.4617V59.6433H97.4047V57.1459ZM84.8758 65.6009H83.6652V57.2604H84.8758V65.6009ZM87.2586 62.0264C87.2576 62.7835 86.7806 63.4582 86.0671 63.7118V59.1495C86.7806 59.4028 87.2576 60.0776 87.2586 60.8349V62.0264ZM88.4687 60.8349H98.5962V62.0264H88.4687V60.8349ZM98.0005 64.4093C97.6714 64.4093 97.4047 64.1425 97.4047 63.8135V63.2177H98.5962V63.8135C98.5962 64.1425 98.3295 64.4093 98.0005 64.4093ZM100.249 54.383L99.8378 55.5018C99.6108 56.1189 98.9265 56.4354 98.309 56.2089L97.1884 55.7983C96.5709 55.5716 96.2539 54.887 96.4806 54.2693C96.4806 54.2693 96.4806 54.2693 96.4806 54.269L96.8919 53.1509L99.9116 54.2595L100.249 54.383ZM106.252 55.3183L91.1523 49.7735L91.5636 48.6547L100.511 51.9404C100.723 52.0174 100.96 51.9691 101.125 51.8151L102.797 50.2413L107.484 51.9629L106.252 55.3183ZM110.28 52.9899C109.903 54.0077 108.887 54.6438 107.807 54.539L108.728 52.0314L110.231 51.2571C110.466 51.8076 110.484 52.4272 110.28 52.9899ZM108.269 50.9301C108.238 50.9328 108.206 50.9383 108.176 50.9466L102.864 48.9962C102.652 48.9185 102.415 48.9667 102.25 49.1212L100.577 50.6953L88.6187 46.3041L90.8773 40.1543L113.168 48.4124L108.269 50.9301Z" fill="#E3B873"/>
<path d="M94.1292 46.7032L93.6038 48.1232M96.419 47.5433L95.8935 48.9632M98.641 48.3698L98.1155 49.7897" stroke="#E3B873" stroke-linecap="round"/>
</svg>
