<?xml version="1.0" encoding="utf-8"?>
<!-- Generator: Adobe Illustrator 27.0.1, SVG Export Plug-In . SVG Version: 6.00 Build 0)  -->
<svg version="1.1" id="Layer_1" xmlns="http://www.w3.org/2000/svg" xmlns:xlink="http://www.w3.org/1999/xlink" x="0px" y="0px"
	 viewBox="0 0 72 72" style="enable-background:new 0 0 72 72;" xml:space="preserve">
<style type="text/css">
	.st0{fill:#E3B873;}
	.st1{fill:#FFFFFF;stroke:#FFFFFF;stroke-width:0.1;}
</style>
<g>
	<circle class="st0" cx="36" cy="36" r="36"/>
</g>
<path class="st1" d="M36.4,43.3c-0.4,0-0.7,0.3-0.7,0.7v1.3c0,0.4,0.3,0.7,0.7,0.7s0.7-0.3,0.7-0.7V44
	C37.1,43.6,36.7,43.3,36.4,43.3z"/>
<path class="st1" d="M53.1,34L53.1,34c-0.5-2.2-1.5-4.2-2.9-5.9c-1.4-1.6-3.2-2.9-5.2-3.7c-0.3-1.3-1-2.7-2.4-3.8
	c-1.3-1-2.6-1.2-2.7-1.2l0,0c-0.2,0-0.4,0-0.5,0.2c-0.2,0.1-0.2,0.3-0.2,0.5v3.3H37c-0.6-1.9-2.4-3.3-4.6-3.3
	c-2.2,0-4.1,1.5-4.6,3.4c-3.1,0.4-6,1.9-8.2,4.2l0,0l0,0c-2.3,2.4-3.5,5.6-3.5,8.9c0,7.4,3.9,13.4,5.1,15.1c0.4,0.5,1,0.8,1.7,0.8
	h2.6c1.1,0,2-0.9,2-2v-0.8c0.7,0.1,1.3,0.1,2,0.1h6.1v0.8c0,1.1,0.9,2,2,2h3c1,0,1.8-0.7,2-1.6l0.3-1.5c4.2-1,7.5-3.9,9.2-7.6h2.5
	c0.8,0,1.4-0.6,1.4-1.3v-5.3c0-0.4-0.1-0.7-0.4-0.9c-0.3-0.3-0.6-0.4-1-0.4l0,0l0,0l0,0l0,0l0,0l0,0l0,0H53.1L53.1,34z M54.7,40.6
	L54.7,40.6L54.7,40.6h-2c0.3-1,0.5-2.1,0.6-3.3c0-0.4-0.3-0.7-0.7-0.7c-0.4,0-0.7,0.3-0.7,0.6c-0.3,5-3.8,9.3-8.6,10.8l0.9-4
	c0.1-0.4-0.2-0.7-0.5-0.8c-0.4-0.1-0.7,0.2-0.8,0.5l-1.5,6.9c-0.1,0.3-0.3,0.5-0.7,0.5h-3c-0.4,0-0.7-0.3-0.7-0.7v-2.6
	c0-0.4-0.3-0.7-0.7-0.7s-0.7,0.3-0.7,0.7v0.8h-6.1c-0.7,0-1.4-0.1-2-0.2v-4.5c0-0.4-0.3-0.7-0.7-0.7s-0.7,0.3-0.7,0.7v6.7
	c0,0.4-0.3,0.7-0.7,0.7h-2.7c-0.2,0-0.4-0.1-0.5-0.3l0,0c-1.1-1.6-4.9-7.3-4.9-14.3c0-3,1.1-5.8,3.2-8l0,0l0,0c1.9-2,4.3-3.3,7-3.8
	c0,0.4,0.1,0.8,0.2,1.1h-0.2c-0.4,0-0.7,0.3-0.7,0.7s0.3,0.7,0.7,0.7H37c0.4,0,0.7-0.3,0.7-0.7S37.4,26,37,26h-0.2
	c0.1-0.4,0.2-0.9,0.2-1.3h2V26c0,0.4,0.3,0.7,0.7,0.7s0.7-0.3,0.7-0.7v-5.1c0.6,0.2,1.4,0.7,2.1,1.5c0.7,0.9,1.3,2.2,1.3,4.2
	c0,0.4,0.3,0.7,0.7,0.7c0.4,0,0.7-0.3,0.7-0.7c0-0.2,0-0.5,0-0.7c1.5,0.7,2.8,1.8,3.9,3c1.3,1.5,2.2,3.3,2.6,5.3
	c0.1,0.6,0.7,1.1,1.3,1.1h1.6L54.7,40.6L54.7,40.6z M32.3,21.4c1.9,0,3.4,1.5,3.4,3.3c0,0.5-0.1,0.9-0.3,1.3h-6.2
	c-0.2-0.4-0.3-0.9-0.3-1.3C28.9,22.9,30.4,21.4,32.3,21.4z"/>
<path class="st1" d="M43.9,34.4L43.9,34.4c0.4-1.1,1.5-1.8,2.7-1.8s2.2,0.7,2.7,1.8l0,0l0,0c0.1,0.3,0,0.7-0.4,0.8L43.9,34.4z
	 M43.9,34.4c-0.1,0.3,0,0.7,0.4,0.9 M43.9,34.4l0.4,0.9 M44.3,35.3c0.4,0.1,0.8,0,0.9-0.4L44.3,35.3z M48.6,35.3c0.1,0,0.2,0,0.2,0
	l-3.6-0.4c0.2-0.5,0.7-0.9,1.4-0.9s1.2,0.4,1.4,0.9C48.1,35.2,48.3,35.3,48.6,35.3z"/>
<path class="st1" d="M35.2,37.1c-0.7-0.4-1.5-0.7-2.3-0.9v-3.1c0.6,0.1,1.1,0.2,1.5,0.5c0.4,0.2,0.6,0.5,0.6,0.7
	c0,0.4,0.3,0.7,0.7,0.7s0.7-0.3,0.7-0.7c0-0.7-0.4-1.2-1-1.7c-0.6-0.4-1.4-0.7-2.4-0.8l0,0c0-0.4-0.3-0.7-0.7-0.7s-0.7,0.3-0.7,0.7
	l0,0c-1,0.1-1.8,0.4-2.4,0.8c-0.6,0.4-1,1-1,1.7c0,0.9,0.5,1.6,1.1,2c0.7,0.4,1.5,0.7,2.3,0.9v3.1c-0.6-0.1-1.1-0.2-1.5-0.5
	c-0.4-0.2-0.6-0.5-0.6-0.7c0-0.4-0.3-0.7-0.7-0.7s-0.7,0.3-0.7,0.7c0,0.7,0.4,1.2,1,1.7c0.6,0.4,1.4,0.7,2.4,0.8l0,0
	c0,0.4,0.3,0.7,0.7,0.7s0.7-0.3,0.7-0.7l0,0c1-0.1,1.8-0.4,2.4-0.8c0.6-0.4,1-1,1-1.7C36.4,38.1,35.9,37.5,35.2,37.1z M31.6,33.1
	v2.7c-0.7-0.2-1.3-0.5-1.6-0.7s-0.5-0.5-0.5-0.8c0-0.2,0.2-0.5,0.6-0.7C30.5,33.3,31,33.1,31.6,33.1z M34.4,39.8
	c-0.4,0.2-0.9,0.4-1.5,0.5v-2.7c0.7,0.2,1.3,0.5,1.6,0.7s0.5,0.5,0.5,0.8C35,39.3,34.8,39.6,34.4,39.8z"/>
</svg>
